<?xml version="1.0" encoding="UTF-8" standalone="no"?>
<!-- Created with Inkscape (http://www.inkscape.org/) -->

<svg
   width="32px"
   height="32px"
   viewBox="0 0 210.47318 45.101391"
   version="1.1"
   id="svg1"
   xml:space="preserve"
   inkscape:version="1.3 (0e150ed6c4, 2023-07-21)"
   sodipodi:docname="chain-texture.svg"
   xmlns:inkscape="http://www.inkscape.org/namespaces/inkscape"
   xmlns:sodipodi="http://sodipodi.sourceforge.net/DTD/sodipodi-0.dtd"
   xmlns="http://www.w3.org/2000/svg"
   xmlns:svg="http://www.w3.org/2000/svg"><sodipodi:namedview
     id="namedview1"
     pagecolor="#ffffff"
     bordercolor="#999999"
     borderopacity="1"
     inkscape:showpageshadow="2"
     inkscape:pageopacity="0"
     inkscape:pagecheckerboard="0"
     inkscape:deskcolor="#d1d1d1"
     inkscape:document-units="mm"
     inkscape:zoom="0.51717104"
     inkscape:cx="167.25608"
     inkscape:cy="-35.771532"
     inkscape:window-width="1920"
     inkscape:window-height="1017"
     inkscape:window-x="-8"
     inkscape:window-y="-8"
     inkscape:window-maximized="1"
     inkscape:current-layer="layer1" /><defs
     id="defs1" /><g
     inkscape:label="Capa 1"
     inkscape:groupmode="layer"
     id="layer1"
     transform="matrix(5.6820652,0,0,5.6820652,-316.26816,-583.06697)"><g
       id="g12"
       transform="rotate(-90,83.198515,112.87117)"><path
         style="fill:#484f64"
         d="m 88.162694,118.40635 v -1.32292 h 1.322916 1.322917 v 1.32292 1.32291 H 89.48561 88.162694 Z m 0,-15.875 v -1.32292 h 1.322916 1.322917 v 1.32292 1.32292 H 89.48561 88.162694 Z M 85.51686,94.593849 v -1.322917 h 1.322917 1.322917 v 1.322917 1.322916 H 86.839777 85.51686 Z m 2.645834,-5.291667 v -1.322916 h 1.322916 1.322917 v 1.322916 1.322917 H 89.48561 88.162694 Z"
         id="path14" /><path
         style="fill:#3d4352"
         d="m 88.162694,121.05218 v -1.32292 h 1.322916 1.322917 v -1.32291 -1.32292 h 1.322917 1.322916 v 1.32292 1.32291 h -1.322916 -1.322917 v 1.32292 1.32292 H 89.48561 88.162694 Z m -2.645834,-9.26042 v -2.64583 h 1.322917 1.322917 v 2.64583 2.64584 H 86.839777 85.51686 Z m 5.291667,-1.32291 v -1.32292 h 1.322917 1.322916 v 1.32292 1.32291 h -1.322916 -1.322917 z m -2.645833,-5.29167 v -1.32291 h 1.322916 1.322917 v 1.32291 1.32292 H 89.48561 88.162694 Z M 85.51686,97.239682 v -1.322917 h 1.322917 1.322917 v 1.322917 1.322917 H 86.839777 85.51686 Z m 5.291667,-2.645833 V 93.270932 H 89.48561 88.162694 v -1.322916 -1.322917 h 1.322916 1.322917 v 1.322917 1.322916 h 1.322917 1.322916 v 1.322917 1.322916 h -1.322916 -1.322917 z"
         id="path13" /><path
         style="fill:#242b3c"
         d="m 85.51686,117.08343 v -2.64583 h 1.322917 1.322917 v 2.64583 2.64583 H 86.839777 85.51686 Z m 5.291667,-2.64583 v -2.64584 H 89.48561 88.162694 v -2.64583 -2.64583 h 1.322916 1.322917 v 2.64583 2.64583 h 1.322917 1.322916 v 2.64584 2.64583 H 92.131444 90.808527 Z M 85.51686,101.20843 v -2.645831 h 1.322917 1.322917 v 2.645831 2.64584 H 86.839777 85.51686 Z m 5.291667,-1.322915 v -3.96875 H 89.48561 88.162694 v -1.322916 -1.322917 h 1.322916 1.322917 v 1.322917 1.322916 h 1.322917 1.322916 v 3.96875 3.968755 H 92.131444 90.808527 Z M 85.51686,87.979266 v -2.645834 h 1.322917 1.322917 v 2.645834 2.645833 H 86.839777 85.51686 Z m 5.291667,0 v -2.645834 h 1.322917 1.322916 v 2.645834 2.645833 h -1.322916 -1.322917 z"
         id="path12" /></g></g></svg>
