<svg xmlns="http://www.w3.org/2000/svg" viewBox="0 0 693 692"><defs><style>.cls-1{fill:#79563a;}.cls-2{fill:#593d28;}.cls-3{fill:#966c4a;}.cls-4{fill:#6c6b6a;}.cls-5{fill:#b8845d;}.cls-6{fill:#888685;}</style></defs><title>Recurso 3</title><g id="Capa_2" data-name="Capa 2"><g id="Recursos"><path class="cls-1" d="M198.05,691.91h-49c-.06-14.29-.22-28.58-.13-42.87,0-4.36-1.61-5.72-5.94-5.63-12.46.26-24.93.16-37.39.1-5.94,0-6.41.31-6.44,6.52q-.07,20.94-.08,41.88c-31.72,0-63.44,0-95.15.06C1,692,0,691.6,0,688.26c.24-14.78.1-29.56.1-44.34,14.12,0,28.24,0,42.35-.1,6.72,0,7.51-.79,7.55-7.42.07-14.11.06-28.23.09-42.35s0-28.25-.09-42.37c0-6-.77-6.79-6.53-6.81-14.45,0-28.91,0-43.37.07V495c14.32,0,28.63,0,42.94,0,6.24,0,6.94-.69,7-6.86,0-14.32,0-28.63,0-42.94,5.78,0,11.57-.18,17.36,0,10.56.28,21.16-.9,31.68.82l.25,48.88q-.09,46.65-.18,93.3c0,3.87,1.41,5.87,5.55,5.84q19.45-.13,38.91,0c3.78,0,5.45-1.66,5.44-5.42q-.17-46.89-.25-93.79c0-14.45,0-28.91.17-43.36,0-3.95-1.4-5.75-5.53-5.7-14.78.18-29.56.18-44.35.25l-.09-49.8.31-.3c14.3.05,28.6.14,42.91.14,6.11,0,6.79-.73,6.82-7,.08-14,.09-27.95.13-41.92,14.11,0,28.21-.09,42.32-.06,5.85,0,6.6.77,6.62,6.67,0,14.11,0,28.22,0,42.33q0,24.82,0,49.67,0,45.86,0,91.72c0,6.65.8,7.42,7.5,7.46,14.13.08,28.25.09,42.37.13q0,24.48.08,48.95l.21,49.79-.38.37c-14.16-.08-28.32-.19-42.48-.22-6.7,0-7.29.63-7.31,7.58C198.05,664.92,198.06,678.42,198.05,691.91Z"/><path class="cls-1" d="M692.92,198v99l-49.07.06h0q0-20.73,0-41.47c0-7.79,0-7.72-7.56-7.71-12.33,0-24.65.1-37-.17-4-.09-5.41,1.4-5.38,5.16.13,14.82.17,29.64.25,44.46q0,24.72,0,49.44l-41.34.15c-7.49,0-7.89.49-8,7.87-.21,13.77.5,27.55-.39,41.32-14.6-.05-29.2.05-43.79-.22-4.72-.09-5.9,1.67-5.82,6.14.26,14.59.11,29.19.12,43.79l-48.9-.31q-.11-49.27-.2-98.57c13.63-.05,27.26.12,40.88-.24,7.52-.2,8.17-1.28,8.19-8.65q.06-20.44.09-40.88,21.42-.1,42.83-.2c6.75,0,6.89-.16,6.91-7.09q.06-21.17.08-42.33,0-24.87,0-49.74,0-24.67,0-49.37,0-20.8,0-41.62c0-2.64.08-5.29-.95-7.81l-.05,0h50l.24,48.77c-.06,14.61,0,29.23-.24,43.84-.07,4.78,1.93,6.43,6.56,6.38,14.45-.15,28.9,0,43.35,0Z"/><path class="cls-1" d="M495,.07h50q0,24.63,0,49.26,0,21,0,41.89c0,2.66.09,5.33-1,7.85l.05,0c-14.27,0-28.54.08-42.82,0-4,0-6.2,1.29-6.16,5.71.14,14.6.11,29.21.14,43.81q-.06,24.61-.13,49.25L495,247c-2.31.2-4.61.58-6.92.59q-18.21.1-36.41,0c-3.43,0-5.82.77-5.77,4.94.16,14.79.19,29.58.28,44.38l-.59.11-49.37,0-.25-49.72L396,198l-.07.07q21.74,0,43.48,0c6.54,0,6.54,0,6.55-6.77q0-21.48,0-43,0-20.23-.05-40.47c0-3,.19-6-1-8.88,1.07-2.53,1-5.21,1-7.87l0-42c14.11,0,28.23.07,42.35,0,5.85,0,6.64-.82,6.67-6.67C495,28.3,495,14.18,495,.07Z"/><path class="cls-1" d="M.1,396V247h149c-1.72,14.89-.54,29.84-.81,44.75a8.69,8.69,0,0,0,1.55,5.17,6.82,6.82,0,0,0-.88.26Q102,297.1,55.06,297c-4,0-5.21,1.76-5.18,5.47.1,12.32,0,24.64,0,37,0,7.14.25,7.37,7.23,7.4q21,.1,42,.16.07,24.42.16,48.84l-.31.3L49.85,396Z"/><path class="cls-1" d="M692.92,495v50c-14.28-.09-28.56-.06-42.83-.34-4.82-.1-6.36,1.86-6.3,6.49.17,14.28.06,28.56.06,42.84l.07-.07q-21.42,0-42.86.1c-6.65,0-6.93.29-6.95,7.12q0,17.7,0,35.39c0,6.83.32,7.17,6.93,7.18,14.29,0,28.58,0,42.87,0q0,24.15,0,48.3H545q0-24.1,0-48.21V544.87l-.06.07a63.57,63.57,0,0,1,11.93-.92q40.19,0,80.37,0c5.88,0,6.67-.82,6.7-6.66.09-14.14.08-28.29.11-42.43Z"/><path class="cls-2" d="M198.05.07H347q-.09,24.41-.17,48.81c-2,.08-4,.23-5.94.24q-22.06.18-44.14.31-38.38-.07-76.78-.17c-7.3,0-14.61-.23-21.91-.35Z"/><path class="cls-1" d="M.1,99.05v-50H49.74l49.36,0,0,0,.06,50-49,.07Z"/><path class="cls-3" d="M.1,396H49.85q.06,24.57.13,49.15c0,14.31.06,28.62,0,42.94,0,6.17-.72,6.85-7,6.86-14.31.05-28.62,0-42.94,0Z"/><path class="cls-2" d="M446,49.07l0,42c0,2.66.09,5.34-1,7.87l-48.7.11q-.19-24.9-.4-49.79.06-24.58.14-49.16h50Q446,24.57,446,49.07Z"/><path class="cls-1" d="M198.05.07q0,24.42,0,48.84l-.15.74c-2.15-.12-4.3-.33-6.45-.35q-21.16-.15-42.32-.23l-50.1,0,0,0q0-24.51,0-49Z"/><path class="cls-3" d="M643.93,691.91q0-24.15,0-48.3,0-24.87,0-49.75l-.07.07h49.07c0,31.5-.06,63,.08,94.48,0,3-.6,3.63-3.59,3.59C674.25,691.81,659.09,691.91,643.93,691.91Z"/><path class="cls-1" d="M495,691.91H396q.13-24.06.28-48.12l98.69.13Z"/><path class="cls-1" d="M.1,198V148l49.5.12c.79,16.69.51,33.38.15,50.07Z"/><path class="cls-3" d="M50.09,594.05c0,14.12,0,28.24-.09,42.35,0,6.63-.83,7.39-7.55,7.42-14.11.07-28.23.07-42.35.1v-50Z"/><path class="cls-3" d="M593.94.07h50q0,24.59,0,49.18a3.47,3.47,0,0,1,0,.85,35.81,35.81,0,0,0-5.39-.81c-14.93,0-29.86.05-44.79.1l-.06,0Z"/><path class="cls-3" d="M643.85,297.06l49.07-.06v50h-49l-.38-.38C644.41,330.09,643.74,313.57,643.85,297.06Z"/><path class="cls-4" d="M49.6,148.15.1,148v-49l50,0q-.06,24.48-.11,49Z"/><path class="cls-1" d="M692.92,396v50c-16.34-.63-32.67-.36-49-.15l0,.1q-.18-24.93-.35-49.87l.54-.1Z"/><path class="cls-2" d="M.1,198l49.65.2q0,24.39,0,48.78H.1Z"/><path class="cls-2" d="M692.92,198H643.86l.36-49.73,48.7-.26Z"/><path class="cls-2" d="M50.09,594.05l-50-.12v-49c14.46,0,28.92-.1,43.37-.07,5.76,0,6.5.82,6.53,6.81C50.07,565.8,50.07,579.93,50.09,594.05Z"/><path class="cls-3" d="M49.74,49.05H.1C.1,33.73.17,18.4,0,3.07,0,.57.6,0,3.1,0c15.66.13,31.33.07,47,.07Z"/><path class="cls-5" d="M644,50.1a3.47,3.47,0,0,0,0-.85l49-.19v50h-49l-.08-.08Q643.92,74.54,644,50.1Z"/><path class="cls-5" d="M99.08,691.91q0-20.94.08-41.88c0-6.21.5-6.55,6.44-6.52,12.46.06,24.93.16,37.39-.1,4.33-.09,6,1.27,5.94,5.63-.09,14.29.07,28.58.13,42.87Z"/><path class="cls-5" d="M593.94.07q-.11,24.65-.22,49.29l-48.78,0q0-24.63,0-49.26Z"/><path class="cls-3" d="M643.94,99.06h49v49l-48.7.26-.46-.42Z"/><path class="cls-3" d="M446,49.07q0-24.51,0-49h49c0,14.11.07,28.23,0,42.35,0,5.85-.82,6.65-6.67,6.67C474.2,49.14,460.08,49.08,446,49.07Z"/><path class="cls-1" d="M396,.07q-.08,24.59-.14,49.16l-48.58.1-.44-.45q.09-24.41.17-48.81Z"/><path class="cls-5" d="M692.92,593.93H643.85c0-14.28.11-28.56-.06-42.84-.06-4.63,1.48-6.59,6.3-6.49,14.27.28,28.55.25,42.83.34Z"/><path class="cls-2" d="M692.92,396l-48.8,0q-.11-24.48-.2-49h49Z"/><path class="cls-2" d="M692.92,49.06l-49,.19q0-24.58,0-49.18c15.33,0,30.66.06,46-.07,2.5,0,3.08.57,3.06,3.07C692.85,18.4,692.92,33.73,692.92,49.06Z"/><path class="cls-6" d="M643.91,445.82c16.34-.21,32.67-.48,49,.15v49l-48.93,0Q643.95,470.37,643.91,445.82Z"/><path class="cls-2" d="M49.74,49.05l.35-49h49q0,24.51,0,49Z"/><path class="cls-2" d="M198.05,691.91c0-13.49,0-27,0-40.48,0-6.95.61-7.59,7.31-7.58,14.16,0,28.32.14,42.48.22Q248,668,248,691.91Z"/><path class="cls-2" d="M347,691.91H297q0-24,0-48h50Z"/><path class="cls-3" d="M495,691.91v-48l50-.22q0,24.1,0,48.21Z"/><path class="cls-1" d="M297,643.91q0,24,0,48H248q-.09-23.92-.16-47.84l.38-.37Z"/><path class="cls-5" d="M347,691.91q0-24,0-48l0,.1,49.15-.37.11.16L396,691.91Z"/><path class="cls-2" d="M198.06,445.65q0-24.84,0-49.67h42.42c7.32,0,7.41-.09,7.42-7.65q0-45.66,0-91.33l49.23-.09h0c0,14.16-.05,28.32,0,42.47,0,7.05.5,7.5,7.81,7.55q21,.15,42,.23c0,14.12,0,28.24.15,42.35.06,4.67-1.68,6.59-6.43,6.53-12.29-.17-24.58-.09-36.87,0-5.89,0-6.61.74-6.63,6.65-.05,14.12,0,28.24,0,42.36a1.49,1.49,0,0,0-.1.63l-49.05.19Z"/><path class="cls-3" d="M247.89,297q0,45.67,0,91.33c0,7.56-.1,7.64-7.42,7.65H198.05c0-14.11,0-28.22,0-42.33,0-5.9-.77-6.66-6.62-6.67-14.11,0-28.21,0-42.32.06l-.37-.37.21-49.5a6.82,6.82,0,0,1,.88-.26h48.22Z"/><path class="cls-3" d="M148.74,494.72q.12,46.89.25,93.79c0,3.76-1.66,5.44-5.44,5.42q-19.45-.1-38.91,0c-4.14,0-5.57-2-5.55-5.84q.14-46.65.18-93.3Z"/><path class="cls-3" d="M297,643.91l-48.75-.21-.21-49.79,49.13,0h39.47c10.33,0,10.33,0,10.34,10.58L347,644l0-.1Z"/><path class="cls-3" d="M198.06,445.65l49.87.19Q248,470.4,248,495v49.91L248,545c-14.12,0-28.24-.05-42.37-.13-6.7,0-7.49-.81-7.5-7.46Q198,491.52,198.06,445.65Z"/><path class="cls-3" d="M99.25,395.81q-.09-24.42-.16-48.84l49.65-.3.37.37c0,14-.05,27.94-.13,41.92,0,6.26-.71,7-6.82,7C127.85,396,113.55,395.86,99.25,395.81Z"/><path class="cls-5" d="M148.74,494.72l-49.47.08q-.12-24.43-.25-48.88h0c14.79-.07,29.57-.07,44.35-.25,4.13-.05,5.57,1.75,5.53,5.7C148.77,465.81,148.78,480.27,148.74,494.72Z"/><path class="cls-2" d="M50,445.13q-.07-24.58-.13-49.15l49.09.13.09,49.8h0c-10.52-1.72-21.12-.54-31.68-.82C61.55,445,55.76,445.11,50,445.13Z"/><path class="cls-5" d="M297.18,593.93l-49.13,0q0-24.48-.08-48.95l.07-.09,49,0,0,0Q297.11,569.43,297.18,593.93Z"/><path class="cls-2" d="M495,445.83c0-14.6.14-29.2-.12-43.79-.08-4.47,1.1-6.23,5.82-6.14,14.59.27,29.19.17,43.79.22l.38-.13q.09,24.94.19,49.9-.11,49.51-.22,99.05l.06-.07L495,545l-41.35-.11c-2.65,0-5.33.12-7.83-1l.29-48.77c14.58,0,29.17-.13,43.76,0,3.63,0,5.45-.75,5.38-4.91C495,475.35,495.08,460.59,495,445.83Z"/><path class="cls-3" d="M445.94,347q.1,49.29.2,98.57c-2.16.12-4.32.31-6.48.33q-21.72.16-43.44.28l-.2-99.24L446,347Z"/><path class="cls-5" d="M446.15,297c-.09-14.8-.12-29.59-.28-44.38-.05-4.17,2.34-4.95,5.77-4.94q18.21.06,36.41,0c2.31,0,4.61-.39,6.92-.59,2,.12,4,.33,6,.34q22,.13,44,.19,0,21.17-.08,42.33c0,6.93-.16,7.06-6.91,7.09q-21.4.12-42.83.2Z"/><path class="cls-5" d="M396.22,446.13q21.72-.13,43.44-.28c2.16,0,4.32-.21,6.48-.33l48.9.31c0,14.76,0,29.52.18,44.27.07,4.16-1.75,4.94-5.38,4.91-14.59-.11-29.18,0-43.76,0l-49.87-.14Q396.21,470.52,396.22,446.13Z"/><path class="cls-3" d="M643.92,347q.11,24.48.2,49l-.54.1L544.91,396l-.38.13c.89-13.77.18-27.55.39-41.32.12-7.38.52-7.83,8-7.87l41.34-.15,49.27-.18Z"/><path class="cls-5" d="M495,197.78q.06-24.63.13-49.25l49.79-.08q0,24.69,0,49.37Z"/><path class="cls-6" d="M643.54,346.6l-49.27.18q0-24.72,0-49.44c16.54-.73,33.09-.28,49.63-.27h0C643.74,313.57,644.41,330.09,643.54,346.6Z"/><path class="cls-3" d="M644.22,148.29,643.86,198c-14.45,0-28.9-.11-43.35,0-4.63.05-6.63-1.6-6.56-6.38.22-14.61.18-29.23.24-43.84,16.52.51,33,.44,49.57,0Z"/><path class="cls-3" d="M643.89,297.07c-16.54,0-33.09-.46-49.63.27-.08-14.82-.12-29.64-.25-44.46,0-3.76,1.37-5.25,5.38-5.16,12.32.27,24.64.2,37,.17,7.55,0,7.56-.08,7.56,7.71Q643.92,276.35,643.89,297.07Z"/><path class="cls-2" d="M544.94,49.33l48.78,0,.06,0c.13,2,.37,3.95.39,5.92q.12,21.84.17,43.69l-.39.08h-50c1.09-2.52,1-5.19,1-7.85Q544.93,70.28,544.94,49.33Z"/><path class="cls-2" d="M544.92,148.45l-49.79.08c0-14.6,0-29.21-.14-43.81,0-4.42,2.11-5.73,6.16-5.71,14.28.09,28.55,0,42.82,0,1,2.52.95,5.17.95,7.81Q544.93,127.65,544.92,148.45Z"/><path class="cls-5" d="M643.76,147.87c-16.52.41-33,.48-49.57,0L594,99.07l.39-.08h49.52l.08.08Z"/><path class="cls-2" d="M495,197.78l49.93,0q0,24.87,0,49.74-22-.09-44-.19c-2,0-4-.22-6-.34Z"/><path class="cls-3" d="M446.15,297l49,.2q0,20.43-.09,40.88c0,7.37-.67,8.45-8.19,8.65-13.62.36-27.25.19-40.88.24h0l-.39-49.86Z"/><path class="cls-3" d="M396.26,99l48.7-.11c1.15,2.87,1,5.89,1,8.88q0,20.24.05,40.47c-14.32,0-28.64,0-43,0-6.45,0-6.84.43-6.87,6.77q-.13,21.48-.22,43L396,198l-48.89,0L347,148.26q0-24.64,0-49.28l-.06,0Z"/><path class="cls-2" d="M347.1,197.92,396,198q0,24.72-.05,49.44H297.46L247.89,247q.09-24.48.17-49Z"/><path class="cls-5" d="M297.46,247.39h98.48q.12,24.86.25,49.72L396,297l-49.15.13-49.77-.27h0Q297.29,272.15,297.46,247.39Z"/><path class="cls-2" d="M395.92,198q.1-21.48.22-43c0-6.34.42-6.75,6.87-6.77,14.32,0,28.64,0,43,0q0,21.5,0,43c0,6.73,0,6.76-6.55,6.77Q417.67,198,395.92,198Z"/><path class="cls-2" d="M445.56,297.09,446,347,396,346.89l.05.08q0-25,0-49.93l.16.07Z"/><path class="cls-3" d="M49.8,247q0-24.39,0-48.78c.36-16.69.64-33.38-.15-50.07L50,148h49c0,14.61.11,29.22,0,43.83,0,4.45,1.72,6.25,6.2,6.2,14.44-.17,28.89-.12,43.33-.15.94,16.37.11,32.76.44,49.13l.05,0Z"/><path class="cls-5" d="M148.74,346.67l-49.65.3q-21-.08-41.95-.16c-7,0-7.22-.26-7.23-7.4,0-12.32.07-24.64,0-37,0-3.71,1.21-5.49,5.18-5.47q46.95.18,93.89.19Z"/><path class="cls-4" d="M198.05,296.9H149.83a8.69,8.69,0,0,1-1.55-5.17c.27-14.91-.91-29.86.81-44.75l-.05,0,49,0,0,0Z"/><path class="cls-3" d="M544.88,544.94q.12-49.53.22-99.05l98.83,0,0-.1q0,24.54.08,49.1c0,14.14,0,28.29-.11,42.43,0,5.84-.82,6.65-6.7,6.66q-40.18.06-80.37,0A63.57,63.57,0,0,0,544.88,544.94Z"/><path class="cls-2" d="M544.94,643.7l-50,.22-98.69-.13-.11-.16c-.05-13.61-.13-27.23-.15-40.85,0-8.74.1-8.82,9-8.84,5.15,0,10.3,0,15.44,0l74.72-.23L545,594Z"/><path class="cls-5" d="M643.92,593.86q0,24.87,0,49.75c-14.29,0-28.58.06-42.87,0-6.61,0-6.91-.35-6.93-7.18q0-17.7,0-35.39c0-6.83.3-7.1,6.95-7.12Q622.5,593.89,643.92,593.86Z"/><path class="cls-3" d="M545,594l-49.81-.28q-.09-24.37-.17-48.76l50-.08Z"/><path class="cls-3" d="M248.06,198.05q-.09,24.48-.17,49H198l0,0L198,198,198.05,99l-.13-49.36.15-.74c7.3.12,14.61.32,21.91.35q38.4.14,76.78.17.14,24.81.28,49.63c-14.14,0-28.27,0-42.4,0-5.86,0-6.62.77-6.63,6.7Q248,151.91,248.06,198.05Z"/><path class="cls-1" d="M297,99.06q-.14-24.81-.28-49.63,22.07-.15,44.14-.31c2,0,4-.16,5.94-.24l.44.45c-.86,16.56-.21,33.14-.34,49.7l.06,0-50,0Z"/><path class="cls-2" d="M99.05,49l50.1,0c-.65,16.67-.41,33.35-.13,50l0,0L99.12,99h0Z"/><path class="cls-5" d="M99.07,148H50q0-24.47.11-49l49-.07h0q0,24.52-.08,49.06Z"/><path class="cls-5" d="M346.94,99c.13-16.56-.52-33.14.34-49.7l48.58-.1q.19,24.9.4,49.79Z"/><path class="cls-5" d="M149,99.09c-.28-16.67-.52-33.35.13-50q21.16.1,42.32.23c2.15,0,4.3.23,6.45.35q.08,24.69.13,49.36Z"/><path class="cls-6" d="M643.86,99H594.34q-.08-21.85-.17-43.69c0-2-.26-3.95-.39-5.92,14.93,0,29.86-.11,44.79-.09a35.81,35.81,0,0,1,5.39.81Q643.92,74.55,643.86,99Z"/><path class="cls-5" d="M643.93,445.92l-98.83,0q-.09-25-.19-49.9l98.67.06Q643.75,421,643.93,445.92Z"/><path class="cls-1" d="M495,545q.09,24.38.17,48.76l-74.72.23c-5.14,0-10.29,0-15.44,0-8.86,0-9,.1-9,8.84,0,13.62.1,27.24.15,40.85L347,644l0-39.48c0-10.58,0-10.58-10.34-10.58H297.18q-.07-24.49-.14-49l49.14-.35c9.79.07,19.59.27,29.38.17,7.12-.08,14.29.84,21.36-.72l48.87-.24c2.5,1.16,5.18,1,7.83,1Z"/><path class="cls-1" d="M396.22,446.13q0,24.38,0,48.76h-.38l-48.79,0c0-14.12,0-28.25-.07-42.37,0-6.63-.82-7.43-7.52-7.46-14.12-.06-28.25-.05-42.37-.06,0-14.12-.05-28.24,0-42.36,0-5.91.74-6.63,6.63-6.65,12.29-.07,24.58-.15,36.87,0,4.75.06,6.49-1.86,6.43-6.53-.19-14.11-.12-28.23-.15-42.35l.32-.33,48.89.15-.05-.08Q396.13,396.51,396.22,446.13Z"/><path class="cls-3" d="M297.08,445c14.12,0,28.25,0,42.37.06,6.7,0,7.5.83,7.52,7.46.06,14.12,0,28.25.07,42.37-1.86,4.6-.06,9.22-.06,13.83,0,12,.06,23.91-.8,35.85l-49.14.35,0,0V495q0-24.66,0-49.3A1.49,1.49,0,0,1,297.08,445Z"/><path class="cls-1" d="M198,247h49.9l49.57.38q-.18,24.75-.34,49.52l-49.23.09-49.84-.1Z"/><path class="cls-1" d="M297.11,296.9l49.77.27.3,49.65-.32.33q-21-.11-42-.23c-7.31-.05-7.8-.5-7.81-7.55C297.06,325.22,297.1,311.06,297.11,296.9Z"/><path class="cls-5" d="M297,445.65q0,24.64,0,49.3H248q-.06-24.56-.11-49.12Z"/><path class="cls-1" d="M248,495h49v50l-49,0Z"/><path class="cls-3" d="M445.79,543.8l-48.87.24a76.91,76.91,0,0,1-.87-12.87c0-12.1-.14-24.19-.22-36.28h.38l49.87.14Z"/><path class="cls-1" d="M248.06,198.05q0-46.14-.05-92.28c0-5.93.77-6.68,6.63-6.7,14.13-.06,28.26,0,42.4,0l0,0c.05,14.65.14,29.31.11,44,0,3.5.63,5.62,4.94,5.54,15-.26,30-.21,44.95-.27l.09,49.66Z"/><path class="cls-5" d="M347,148.26c-15,.06-30,0-44.95.27-4.31.08-4.95-2-4.94-5.54,0-14.65-.06-29.31-.11-44l50,0Q347,123.61,347,148.26Z"/><path class="cls-3" d="M347.18,346.82l-.3-49.65L396,297q0,25,0,49.93Z"/><path class="cls-5" d="M148.6,197.91c-14.44,0-28.89,0-43.33.15-4.48.05-6.24-1.75-6.2-6.2.11-14.61,0-29.22,0-43.83l0,0,49.61.43L149,198Z"/><path class="cls-1" d="M198,198l.07,49.12-49,0c-.33-16.37.5-32.76-.44-49.13l.37.09Z"/><path class="cls-2" d="M198,198,149,198q-.16-24.75-.32-49.5.21-24.72.4-49.44l0,0,49-.08Z"/><path class="cls-1" d="M149.05,99.06q-.2,24.72-.4,49.44L99,148.07q0-24.54.08-49.06Z"/><path class="cls-4" d="M395.83,494.89c.08,12.09.2,24.18.22,36.28a76.91,76.91,0,0,0,.87,12.87c-7.07,1.56-14.24.64-21.36.72-9.79.1-19.59-.1-29.38-.17.86-11.94.79-23.9.8-35.85,0-4.61-1.8-9.23.06-13.83Z"/></g></g></svg>