<svg width="797" height="744" viewBox="0 0 797 744" fill="none" xmlns="http://www.w3.org/2000/svg">
<path d="M371.546 610.398V583.859H345.007H318.468V557.32V530.781H291.929H265.39V504.242V477.703H238.851H212.312V451.164V424.625H185.773H159.234V398.085V371.546H132.695H106.156V265.39V159.234H132.695H159.234V132.695V106.156H238.851H318.468V132.695V159.234H345.007H371.546V185.773V212.312H398.085H424.625V185.773V159.234H451.164H477.703V132.695V106.156H557.32H636.937V132.695V159.234H663.476H690.015V265.39V371.546H663.476H636.937V398.085V424.625H610.398H583.859V451.164V477.703H557.32H530.781V504.242V530.781H504.242H477.703V557.32V583.859H451.164H424.625V610.398V636.937H398.085H371.546V610.398ZM212.312 345.007V318.468H185.773H159.234V345.007V371.546H185.773H212.312V345.007ZM212.312 238.851V212.312H238.851H265.39V185.773V159.234H212.312H159.234V212.312V265.39H185.773H212.312V238.851Z" fill="#FE373E"/>
<path d="M371.546 663.476V636.937H345.007H318.468V610.398V583.859H291.929H265.39V557.32V530.781H238.851H212.312V504.242V477.703H185.773H159.234V451.164V424.625H132.695H106.156V398.085V371.546H79.6171H53.0781V265.39V159.234H79.6171H106.156V132.695V106.156H132.695H159.234V79.6171V53.078H238.851H318.468V79.6171V106.156H345.007H371.546V132.695V159.234H398.086H424.625V132.695V106.156H451.164H477.703V79.6171V53.078H557.32H636.937V79.6171V106.156H663.476H690.015V132.695V159.234H716.554H743.093V265.39V371.546H716.554H690.015V398.085V424.625H663.476H636.937V451.164V477.703H610.398H583.859V504.242V530.781H557.32H530.781V557.32V583.859H504.242H477.703V610.398V636.937H451.164H424.625V663.476V690.015H398.086H371.546V663.476ZM424.625 610.398V583.859H451.164H477.703V557.32V530.781H504.242H530.781V504.242V477.703H557.32H583.859V451.164V424.625H610.398H636.937V398.085V371.546H663.476H690.015V265.39V159.234H663.476H636.937V132.695V106.156H557.32H477.703V132.695V159.234H451.164H424.625V185.773V212.312H398.086H371.546V185.773V159.234H345.007H318.468V132.695V106.156H238.851H159.234V132.695V159.234H132.695H106.156V265.39V371.546H132.695H159.234V398.085V424.625H185.773H212.312V451.164V477.703H238.851H265.39V504.242V530.781H291.929H318.468V557.32V583.859H345.007H371.546V610.398V636.937H398.086H424.625V610.398Z" fill="#3F2D25"/>
<path d="M268 214.5V159H158V266H215.368V214.5H268Z" fill="#FE373E"/>
<rect x="159" y="317" width="54" height="55" fill="#FE373E"/>
<rect x="161" y="160" width="68" height="132" fill="#5F0101"/>
<rect x="225" y="229" width="68" height="127" fill="#5F0101"/>
<rect width="68.5152" height="132" transform="matrix(1 0 0 -1 504 355)" fill="#5F0101"/>
<rect width="68.5152" height="127" transform="matrix(1 0 0 -1 568.485 286)" fill="#5F0101"/>
<rect x="159" y="372" width="53" height="53" fill="#BB0B0B"/>
<rect x="212" y="425" width="53" height="53" fill="#BB0B0B"/>
<rect x="265" y="478" width="54" height="53" fill="#BB0B0B"/>
<rect x="318" y="532" width="54" height="53" fill="#BB0B0B"/>
<rect x="583" y="372" width="54" height="53" fill="#BB0B0B"/>
<rect x="530" y="425" width="54" height="53" fill="#BB0B0B"/>
<rect x="477" y="478" width="54" height="53" fill="#BB0B0B"/>
<rect x="424" y="532" width="54" height="53" fill="#BB0B0B"/>
</svg>
