<?xml version="1.0" encoding="UTF-8" standalone="no"?>
<!-- Created with Inkscape (http://www.inkscape.org/) -->

<svg
   width="210.65358mm"
   height="196.60999mm"
   viewBox="0 0 210.65358 196.60999"
   version="1.1"
   id="svg1"
   xml:space="preserve"
   inkscape:version="1.3 (0e150ed6c4, 2023-07-21)"
   sodipodi:docname="corazon-minecraft.svg"
   xmlns:inkscape="http://www.inkscape.org/namespaces/inkscape"
   xmlns:sodipodi="http://sodipodi.sourceforge.net/DTD/sodipodi-0.dtd"
   xmlns="http://www.w3.org/2000/svg"
   xmlns:svg="http://www.w3.org/2000/svg"><sodipodi:namedview
     id="namedview1"
     pagecolor="#ffffff"
     bordercolor="#999999"
     borderopacity="1"
     inkscape:showpageshadow="2"
     inkscape:pageopacity="0"
     inkscape:pagecheckerboard="0"
     inkscape:deskcolor="#d1d1d1"
     inkscape:document-units="mm"
     inkscape:zoom="1.0343421"
     inkscape:cx="320.01019"
     inkscape:cy="389.13626"
     inkscape:window-width="1920"
     inkscape:window-height="1017"
     inkscape:window-x="-8"
     inkscape:window-y="-8"
     inkscape:window-maximized="1"
     inkscape:current-layer="g1" /><defs
     id="defs1" /><g
     inkscape:label="Capa 1"
     inkscape:groupmode="layer"
     id="layer1"
     transform="translate(0.91467667,-0.61256796)"><g
       id="g1"><path
         style="fill:#fe373e"
         d="m 97.390327,162.11363 v -7.02179 h -7.021786 -7.021786 v -7.02178 -7.02179 h -7.021786 -7.021786 v -7.02178 -7.02179 h -7.021786 -7.021786 v -7.02178 -7.02179 h -7.021786 -7.021786 v -7.02178 -7.021789 H 34.194253 27.172467 V 70.83042 42.743279 h 7.021786 7.021786 v -7.021785 -7.021785 h 21.065358 21.065358 v 7.021785 7.021785 h 7.021786 7.021786 v 7.021785 7.021785 h 7.021783 7.02179 v -7.021785 -7.021785 h 7.02179 7.02178 v -7.021785 -7.021785 h 21.06536 21.06536 v 7.021785 7.021785 h 7.02178 7.02179 V 70.83042 98.917561 h -7.02179 -7.02178 v 7.021789 7.02178 h -7.02179 -7.02178 v 7.02179 7.02178 h -7.02179 -7.02179 v 7.02179 7.02178 h -7.02178 -7.02179 v 7.02179 7.02178 h -7.02178 -7.02179 v 7.02179 7.02178 h -7.02179 -7.021783 z M 55.259611,91.895775 V 84.87399 h -7.021786 -7.021786 v 7.021785 7.021786 h 7.021786 7.021786 z m 0,-28.08714 v -7.021786 h 7.021786 7.021786 V 49.765064 42.743279 H 55.259611 41.216039 v 14.04357 14.043571 h 7.021786 7.021786 z"
         id="path2" /><path
         style="fill:#3f2d25"
         d="m 97.390327,176.1572 v -7.02179 h -7.021786 -7.021786 v -7.02178 -7.02179 h -7.021786 -7.021786 v -7.02178 -7.02179 h -7.021786 -7.021786 v -7.02178 -7.02179 h -7.021786 -7.021786 v -7.02178 -7.02179 h -7.021786 -7.021786 v -7.02178 -7.021789 H 20.150681 13.128895 V 70.83042 42.743279 h 7.021786 7.021786 v -7.021785 -7.021785 h 7.021786 7.021786 v -7.021785 -7.021786 h 21.065358 21.065358 v 7.021786 7.021785 h 7.021786 7.021786 v 7.021785 7.021785 h 7.021783 7.02179 v -7.021785 -7.021785 h 7.02179 7.02178 v -7.021785 -7.021786 h 21.06536 21.06536 v 7.021786 7.021785 h 7.02178 7.02179 v 7.021785 7.021785 h 7.02179 7.02178 V 70.83042 98.917561 h -7.02178 -7.02179 v 7.021789 7.02178 h -7.02179 -7.02178 v 7.02179 7.02178 h -7.02179 -7.02178 v 7.02179 7.02178 h -7.02179 -7.02179 v 7.02179 7.02178 h -7.02178 -7.02179 v 7.02179 7.02178 h -7.02178 -7.02179 v 7.02179 7.02178 h -7.02179 -7.021783 z M 111.4339,162.11363 v -7.02179 h 7.02179 7.02178 v -7.02178 -7.02179 h 7.02179 7.02178 v -7.02178 -7.02179 h 7.02179 7.02179 v -7.02178 -7.02179 h 7.02178 7.02179 v -7.02178 -7.021789 h 7.02178 7.02179 V 70.83042 42.743279 h -7.02179 -7.02178 v -7.021785 -7.021785 h -21.06536 -21.06536 v 7.021785 7.021785 h -7.02178 -7.02179 v 7.021785 7.021785 h -7.02179 -7.021783 V 49.765064 42.743279 H 90.368541 83.346755 V 35.721494 28.699709 H 62.281397 41.216039 v 7.021785 7.021785 H 34.194253 27.172467 V 70.83042 98.917561 h 7.021786 7.021786 v 7.021789 7.02178 h 7.021786 7.021786 v 7.02179 7.02178 h 7.021786 7.021786 v 7.02179 7.02178 h 7.021786 7.021786 v 7.02179 7.02178 h 7.021786 7.021786 v 7.02179 7.02178 h 7.021783 7.02179 z"
         id="path1" /></g></g></svg>
