<svg id="Capa_1" data-name="Capa 1" xmlns="http://www.w3.org/2000/svg" viewBox="0 0 335.33 335.33"><defs><style>.cls-1{fill:#edecee;}.cls-2{fill:#eeedef;}.cls-3{fill:#ecebed;}.cls-4{fill:#eaeaec;}.cls-5{fill:#e9eaec;}.cls-6{fill:#ebebed;}.cls-7{fill:#eaebed;}.cls-8{fill:#eeeef0;}.cls-9{fill:#ececee;}.cls-10{fill:#ededef;}.cls-11{fill:#e8e8e9;}.cls-12{fill:#eeecee;}.cls-13{fill:#ebeaec;}.cls-14{fill:#edebed;}.cls-15{fill:#f0f0f2;}.cls-16{fill:#eceaed;}.cls-17{fill:#eff0f1;}.cls-18{fill:#edeef0;}.cls-19{fill:#eaebec;}.cls-20{fill:#e8e9eb;}.cls-21{fill:#e8e9ea;}.cls-22{fill:#efeff1;}.cls-23{fill:#f0f0f1;}.cls-24{fill:#ececef;}.cls-25{fill:#efeff0;}.cls-26{fill:#e5e5e7;}.cls-27{fill:#eeeff1;}.cls-28{fill:#f1f1f3;}.cls-29{fill:#e9e9eb;}.cls-30{fill:#ececed;}.cls-31{fill:#f0f1f2;}.cls-32{fill:#f2f2f3;}.cls-33{fill:#f1f1f2;}</style></defs><rect class="cls-1" x="318.56" y="318.56" width="16.77" height="16.77"/><rect class="cls-1" x="301.8" y="318.56" width="16.77" height="16.77"/><rect class="cls-2" x="285.03" y="318.56" width="16.77" height="16.77"/><rect class="cls-3" x="268.26" y="318.56" width="16.77" height="16.77"/><rect class="cls-3" x="251.5" y="318.56" width="16.77" height="16.77"/><rect class="cls-4" x="234.73" y="318.56" width="16.77" height="16.77"/><rect class="cls-5" x="217.96" y="318.56" width="16.77" height="16.77"/><rect class="cls-6" x="201.2" y="318.56" width="16.77" height="16.77"/><rect class="cls-7" x="184.43" y="318.56" width="16.77" height="16.77"/><rect class="cls-8" x="167.66" y="318.56" width="16.77" height="16.77"/><rect class="cls-9" x="150.9" y="318.56" width="16.77" height="16.77"/><rect class="cls-9" x="134.13" y="318.56" width="16.77" height="16.77"/><rect class="cls-9" x="117.36" y="318.56" width="16.77" height="16.77"/><rect class="cls-8" x="100.6" y="318.56" width="16.77" height="16.77"/><rect class="cls-6" x="83.83" y="318.56" width="16.77" height="16.77"/><rect class="cls-5" x="67.07" y="318.56" width="16.77" height="16.77"/><rect class="cls-10" x="50.3" y="318.56" width="16.77" height="16.77"/><rect class="cls-9" x="33.53" y="318.56" width="16.77" height="16.77"/><rect class="cls-11" x="16.77" y="318.56" width="16.77" height="16.77"/><rect class="cls-11" y="318.56" width="16.77" height="16.77"/><rect class="cls-12" x="318.56" y="301.8" width="16.77" height="16.77"/><rect class="cls-1" x="301.8" y="301.8" width="16.77" height="16.77"/><rect class="cls-13" x="285.03" y="301.8" width="16.77" height="16.77"/><rect class="cls-14" x="268.26" y="301.8" width="16.77" height="16.77"/><rect class="cls-9" x="251.5" y="301.8" width="16.77" height="16.77"/><rect class="cls-9" x="234.73" y="301.8" width="16.77" height="16.77"/><rect class="cls-4" x="217.96" y="301.8" width="16.77" height="16.77"/><rect class="cls-10" x="201.2" y="301.8" width="16.77" height="16.77"/><rect class="cls-6" x="184.43" y="301.8" width="16.77" height="16.77"/><rect class="cls-9" x="167.66" y="301.8" width="16.77" height="16.77"/><rect class="cls-9" x="150.9" y="301.8" width="16.77" height="16.77"/><rect class="cls-10" x="134.13" y="301.8" width="16.77" height="16.77"/><rect class="cls-1" x="117.36" y="301.8" width="16.77" height="16.77"/><rect class="cls-10" x="100.6" y="301.8" width="16.77" height="16.77"/><rect class="cls-4" x="83.83" y="301.8" width="16.77" height="16.77"/><rect class="cls-6" x="67.07" y="301.8" width="16.77" height="16.77"/><rect class="cls-8" x="50.3" y="301.8" width="16.77" height="16.77"/><rect class="cls-15" x="33.53" y="301.8" width="16.77" height="16.77"/><rect class="cls-4" x="16.77" y="301.8" width="16.77" height="16.77"/><rect class="cls-9" y="301.8" width="16.77" height="16.77"/><rect class="cls-1" x="318.56" y="285.03" width="16.77" height="16.77"/><rect class="cls-3" x="301.8" y="285.03" width="16.77" height="16.77"/><rect class="cls-16" x="285.03" y="285.03" width="16.77" height="16.77"/><rect class="cls-10" x="268.26" y="285.03" width="16.77" height="16.77"/><rect class="cls-6" x="251.5" y="285.03" width="16.77" height="16.77"/><rect class="cls-6" x="234.73" y="285.03" width="16.77" height="16.77"/><rect class="cls-9" x="217.96" y="285.03" width="16.77" height="16.77"/><rect class="cls-6" x="201.2" y="285.03" width="16.77" height="16.77"/><rect class="cls-10" x="184.43" y="285.03" width="16.77" height="16.77"/><rect class="cls-10" x="167.66" y="285.03" width="16.77" height="16.77"/><rect class="cls-6" x="150.9" y="285.03" width="16.77" height="16.77"/><rect class="cls-6" x="134.13" y="285.03" width="16.77" height="16.77"/><rect class="cls-17" x="117.36" y="285.03" width="16.77" height="16.77"/><rect class="cls-18" x="100.6" y="285.03" width="16.77" height="16.77"/><rect class="cls-10" x="83.83" y="285.03" width="16.77" height="16.77"/><rect class="cls-19" x="67.07" y="285.03" width="16.77" height="16.77"/><rect class="cls-10" x="50.3" y="285.03" width="16.77" height="16.77"/><rect class="cls-1" x="33.53" y="285.03" width="16.77" height="16.77"/><rect class="cls-18" x="16.77" y="285.03" width="16.77" height="16.77"/><rect class="cls-6" y="285.03" width="16.77" height="16.77"/><rect class="cls-6" x="318.56" y="268.26" width="16.77" height="16.77"/><rect class="cls-6" x="301.8" y="268.26" width="16.77" height="16.77"/><rect class="cls-20" x="285.03" y="268.26" width="16.77" height="16.77"/><rect class="cls-6" x="268.26" y="268.26" width="16.77" height="16.77"/><rect class="cls-3" x="251.5" y="268.26" width="16.77" height="16.77"/><rect class="cls-6" x="234.73" y="268.26" width="16.77" height="16.77"/><rect class="cls-6" x="217.96" y="268.26" width="16.77" height="16.77"/><rect class="cls-9" x="201.2" y="268.26" width="16.77" height="16.77"/><rect class="cls-3" x="184.43" y="268.26" width="16.77" height="16.77"/><rect class="cls-21" x="167.66" y="268.26" width="16.77" height="16.77"/><rect class="cls-10" x="150.9" y="268.26" width="16.77" height="16.77"/><rect class="cls-22" x="134.13" y="268.26" width="16.77" height="16.77"/><rect class="cls-6" x="117.36" y="268.26" width="16.77" height="16.77"/><rect class="cls-9" x="100.6" y="268.26" width="16.77" height="16.77"/><rect class="cls-9" x="83.83" y="268.26" width="16.77" height="16.77"/><rect class="cls-8" x="67.07" y="268.26" width="16.77" height="16.77"/><rect class="cls-23" x="50.3" y="268.26" width="16.77" height="16.77"/><rect class="cls-6" x="33.53" y="268.26" width="16.77" height="16.77"/><rect class="cls-9" x="16.77" y="268.26" width="16.77" height="16.77"/><rect class="cls-24" y="268.26" width="16.77" height="16.77"/><rect class="cls-3" x="318.56" y="251.5" width="16.77" height="16.77"/><rect class="cls-6" x="301.8" y="251.5" width="16.77" height="16.77"/><rect class="cls-10" x="285.03" y="251.5" width="16.77" height="16.77"/><rect class="cls-6" x="268.26" y="251.5" width="16.77" height="16.77"/><rect class="cls-18" x="251.5" y="251.5" width="16.77" height="16.77"/><rect class="cls-8" x="234.73" y="251.5" width="16.77" height="16.77"/><rect class="cls-10" x="217.96" y="251.5" width="16.77" height="16.77"/><rect class="cls-6" x="201.2" y="251.5" width="16.77" height="16.77"/><rect class="cls-10" x="184.43" y="251.5" width="16.77" height="16.77"/><rect class="cls-10" x="167.66" y="251.5" width="16.77" height="16.77"/><rect class="cls-9" x="150.9" y="251.5" width="16.77" height="16.77"/><rect class="cls-22" x="134.13" y="251.5" width="16.77" height="16.77"/><rect class="cls-8" x="117.36" y="251.5" width="16.77" height="16.77"/><rect class="cls-10" x="100.6" y="251.5" width="16.77" height="16.77"/><rect class="cls-8" x="83.83" y="251.5" width="16.77" height="16.77"/><rect class="cls-17" x="67.07" y="251.5" width="16.77" height="16.77"/><rect class="cls-1" x="50.3" y="251.5" width="16.77" height="16.77"/><rect class="cls-10" x="33.53" y="251.5" width="16.77" height="16.77"/><rect class="cls-10" x="16.77" y="251.5" width="16.77" height="16.77"/><rect class="cls-5" y="251.5" width="16.77" height="16.77"/><rect class="cls-6" x="318.56" y="234.73" width="16.77" height="16.77"/><rect class="cls-10" x="301.8" y="234.73" width="16.77" height="16.77"/><rect class="cls-1" x="285.03" y="234.73" width="16.77" height="16.77"/><rect class="cls-21" x="268.26" y="234.73" width="16.77" height="16.77"/><rect class="cls-9" x="251.5" y="234.73" width="16.77" height="16.77"/><rect class="cls-9" x="234.73" y="234.73" width="16.77" height="16.77"/><rect class="cls-4" x="217.96" y="234.73" width="16.77" height="16.77"/><rect class="cls-10" x="201.2" y="234.73" width="16.77" height="16.77"/><rect class="cls-6" x="184.43" y="234.73" width="16.77" height="16.77"/><rect class="cls-25" x="167.66" y="234.73" width="16.77" height="16.77"/><rect class="cls-4" x="150.9" y="234.73" width="16.77" height="16.77"/><rect class="cls-6" x="134.13" y="234.73" width="16.77" height="16.77"/><rect class="cls-10" x="117.36" y="234.73" width="16.77" height="16.77"/><rect class="cls-10" x="100.6" y="234.73" width="16.77" height="16.77"/><rect class="cls-8" x="83.83" y="234.73" width="16.77" height="16.77"/><rect class="cls-15" x="67.07" y="234.73" width="16.77" height="16.77"/><rect class="cls-9" x="50.3" y="234.73" width="16.77" height="16.77"/><rect class="cls-10" x="33.53" y="234.73" width="16.77" height="16.77"/><rect class="cls-6" x="16.77" y="234.73" width="16.77" height="16.77"/><rect class="cls-4" y="234.73" width="16.77" height="16.77"/><rect class="cls-6" x="318.56" y="217.96" width="16.77" height="16.77"/><rect class="cls-4" x="301.8" y="217.96" width="16.77" height="16.77"/><rect class="cls-24" x="285.03" y="217.96" width="16.77" height="16.77"/><rect class="cls-9" x="268.26" y="217.96" width="16.77" height="16.77"/><rect class="cls-26" x="251.5" y="217.96" width="16.77" height="16.77"/><rect class="cls-6" x="234.73" y="217.96" width="16.77" height="16.77"/><rect class="cls-10" x="217.96" y="217.96" width="16.77" height="16.77"/><rect class="cls-10" x="201.2" y="217.96" width="16.77" height="16.77"/><rect class="cls-8" x="184.43" y="217.96" width="16.77" height="16.77"/><rect class="cls-10" x="167.66" y="217.96" width="16.77" height="16.77"/><rect class="cls-27" x="150.9" y="217.96" width="16.77" height="16.77"/><rect class="cls-10" x="134.13" y="217.96" width="16.77" height="16.77"/><rect class="cls-8" x="117.36" y="217.96" width="16.77" height="16.77"/><rect class="cls-17" x="100.6" y="217.96" width="16.77" height="16.77"/><rect class="cls-9" x="83.83" y="217.96" width="16.77" height="16.77"/><rect class="cls-10" x="67.07" y="217.96" width="16.77" height="16.77"/><rect class="cls-8" x="50.3" y="217.96" width="16.77" height="16.77"/><rect class="cls-9" x="33.53" y="217.96" width="16.77" height="16.77"/><rect class="cls-10" x="16.77" y="217.96" width="16.77" height="16.77"/><rect class="cls-6" y="217.96" width="16.77" height="16.77"/><rect class="cls-18" x="318.56" y="201.2" width="16.77" height="16.77"/><rect class="cls-24" x="301.8" y="201.2" width="16.77" height="16.77"/><rect class="cls-10" x="285.03" y="201.2" width="16.77" height="16.77"/><rect class="cls-9" x="268.26" y="201.2" width="16.77" height="16.77"/><rect class="cls-13" x="251.5" y="201.2" width="16.77" height="16.77"/><rect class="cls-18" x="234.73" y="201.2" width="16.77" height="16.77"/><rect class="cls-22" x="217.96" y="201.2" width="16.77" height="16.77"/><rect class="cls-8" x="201.2" y="201.2" width="16.77" height="16.77"/><rect class="cls-28" x="184.43" y="201.2" width="16.77" height="16.77"/><rect class="cls-10" x="167.66" y="201.2" width="16.77" height="16.77"/><rect class="cls-17" x="150.9" y="201.2" width="16.77" height="16.77"/><rect class="cls-29" x="134.13" y="201.2" width="16.77" height="16.77"/><rect class="cls-8" x="117.36" y="201.2" width="16.77" height="16.77"/><rect class="cls-4" x="100.6" y="201.2" width="16.77" height="16.77"/><rect class="cls-7" x="83.83" y="201.2" width="16.77" height="16.77"/><rect class="cls-10" x="67.07" y="201.2" width="16.77" height="16.77"/><rect class="cls-8" x="50.3" y="201.2" width="16.77" height="16.77"/><rect class="cls-15" x="33.53" y="201.2" width="16.77" height="16.77"/><rect class="cls-10" x="16.77" y="201.2" width="16.77" height="16.77"/><rect class="cls-10" y="201.2" width="16.77" height="16.77"/><rect class="cls-10" x="318.56" y="184.43" width="16.77" height="16.77"/><rect class="cls-10" x="301.8" y="184.43" width="16.77" height="16.77"/><rect class="cls-8" x="285.03" y="184.43" width="16.77" height="16.77"/><rect class="cls-10" x="268.26" y="184.43" width="16.77" height="16.77"/><rect class="cls-9" x="251.5" y="184.43" width="16.77" height="16.77"/><rect class="cls-8" x="234.73" y="184.43" width="16.77" height="16.77"/><rect class="cls-18" x="217.96" y="184.43" width="16.77" height="16.77"/><rect class="cls-10" x="201.2" y="184.43" width="16.77" height="16.77"/><rect class="cls-17" x="184.43" y="184.43" width="16.77" height="16.77"/><rect class="cls-15" x="167.66" y="184.43" width="16.77" height="16.77"/><rect class="cls-9" x="150.9" y="184.43" width="16.77" height="16.77"/><rect class="cls-10" x="134.13" y="184.43" width="16.77" height="16.77"/><rect class="cls-1" x="117.36" y="184.43" width="16.77" height="16.77"/><rect class="cls-10" x="100.6" y="184.43" width="16.77" height="16.77"/><rect class="cls-10" x="83.83" y="184.43" width="16.77" height="16.77"/><rect class="cls-9" x="67.07" y="184.43" width="16.77" height="16.77"/><rect class="cls-10" x="50.3" y="184.43" width="16.77" height="16.77"/><rect class="cls-9" x="33.53" y="184.43" width="16.77" height="16.77"/><rect class="cls-18" x="16.77" y="184.43" width="16.77" height="16.77"/><rect class="cls-10" y="184.43" width="16.77" height="16.77"/><rect class="cls-10" x="318.56" y="167.66" width="16.77" height="16.77"/><rect class="cls-22" x="301.8" y="167.66" width="16.77" height="16.77"/><rect class="cls-10" x="285.03" y="167.66" width="16.77" height="16.77"/><rect class="cls-22" x="268.26" y="167.66" width="16.77" height="16.77"/><rect class="cls-8" x="251.5" y="167.66" width="16.77" height="16.77"/><rect class="cls-10" x="234.73" y="167.66" width="16.77" height="16.77"/><rect class="cls-22" x="217.96" y="167.66" width="16.77" height="16.77"/><rect class="cls-17" x="201.2" y="167.66" width="16.77" height="16.77"/><rect class="cls-10" x="184.43" y="167.66" width="16.77" height="16.77"/><rect class="cls-6" x="167.66" y="167.66" width="16.77" height="16.77"/><rect class="cls-27" x="150.9" y="167.66" width="16.77" height="16.77"/><rect class="cls-10" x="134.13" y="167.66" width="16.77" height="16.77"/><rect class="cls-10" x="117.36" y="167.66" width="16.77" height="16.77"/><rect class="cls-17" x="100.6" y="167.66" width="16.77" height="16.77"/><rect class="cls-15" x="83.83" y="167.66" width="16.77" height="16.77"/><rect class="cls-8" x="67.07" y="167.66" width="16.77" height="16.77"/><rect class="cls-23" x="50.3" y="167.66" width="16.77" height="16.77"/><rect class="cls-24" x="33.53" y="167.66" width="16.77" height="16.77"/><rect class="cls-5" x="16.77" y="167.66" width="16.77" height="16.77"/><rect class="cls-8" y="167.66" width="16.77" height="16.77"/><rect class="cls-8" x="318.56" y="150.9" width="16.77" height="16.77"/><rect class="cls-17" x="301.8" y="150.9" width="16.77" height="16.77"/><rect class="cls-9" x="285.03" y="150.9" width="16.77" height="16.77"/><rect class="cls-30" x="268.26" y="150.9" width="16.77" height="16.77"/><rect class="cls-6" x="251.5" y="150.9" width="16.77" height="16.77"/><rect class="cls-10" x="234.73" y="150.9" width="16.77" height="16.77"/><rect class="cls-27" x="217.96" y="150.9" width="16.77" height="16.77"/><rect class="cls-18" x="201.2" y="150.9" width="16.77" height="16.77"/><rect class="cls-18" x="184.43" y="150.9" width="16.77" height="16.77"/><rect class="cls-28" x="167.66" y="150.9" width="16.77" height="16.77"/><rect class="cls-31" x="150.9" y="150.9" width="16.77" height="16.77"/><rect class="cls-10" x="134.13" y="150.9" width="16.77" height="16.77"/><rect class="cls-10" x="117.36" y="150.9" width="16.77" height="16.77"/><rect class="cls-23" x="100.6" y="150.9" width="16.77" height="16.77"/><rect class="cls-8" x="83.83" y="150.9" width="16.77" height="16.77"/><rect class="cls-24" x="67.07" y="150.9" width="16.77" height="16.77"/><rect class="cls-8" x="50.3" y="150.9" width="16.77" height="16.77"/><rect class="cls-8" x="33.53" y="150.9" width="16.77" height="16.77"/><rect class="cls-8" x="16.77" y="150.9" width="16.77" height="16.77"/><rect class="cls-9" y="150.9" width="16.77" height="16.77"/><rect class="cls-8" x="318.56" y="134.13" width="16.77" height="16.77"/><rect class="cls-8" x="301.8" y="134.13" width="16.77" height="16.77"/><rect class="cls-10" x="285.03" y="134.13" width="16.77" height="16.77"/><rect class="cls-22" x="268.26" y="134.13" width="16.77" height="16.77"/><rect class="cls-9" x="251.5" y="134.13" width="16.77" height="16.77"/><rect class="cls-10" x="234.73" y="134.13" width="16.77" height="16.77"/><rect class="cls-10" x="217.96" y="134.13" width="16.77" height="16.77"/><rect class="cls-15" x="201.2" y="134.13" width="16.77" height="16.77"/><rect class="cls-8" x="184.43" y="134.13" width="16.77" height="16.77"/><rect class="cls-22" x="167.66" y="134.13" width="16.77" height="16.77"/><rect class="cls-32" x="150.9" y="134.13" width="16.77" height="16.77"/><rect class="cls-25" x="134.13" y="134.13" width="16.77" height="16.77"/><rect class="cls-8" x="117.36" y="134.13" width="16.77" height="16.77"/><rect class="cls-9" x="100.6" y="134.13" width="16.77" height="16.77"/><rect class="cls-8" x="83.83" y="134.13" width="16.77" height="16.77"/><rect class="cls-17" x="67.07" y="134.13" width="16.77" height="16.77"/><rect class="cls-15" x="50.3" y="134.13" width="16.77" height="16.77"/><rect class="cls-9" x="33.53" y="134.13" width="16.77" height="16.77"/><rect class="cls-10" x="16.77" y="134.13" width="16.77" height="16.77"/><rect class="cls-6" y="134.13" width="16.77" height="16.77"/><rect class="cls-18" x="318.56" y="117.36" width="16.77" height="16.77"/><rect class="cls-15" x="301.8" y="117.36" width="16.77" height="16.77"/><rect class="cls-10" x="285.03" y="117.36" width="16.77" height="16.77"/><rect class="cls-17" x="268.26" y="117.36" width="16.77" height="16.77"/><rect class="cls-22" x="251.5" y="117.36" width="16.77" height="16.77"/><rect class="cls-8" x="234.73" y="117.36" width="16.77" height="16.77"/><rect class="cls-8" x="217.96" y="117.36" width="16.77" height="16.77"/><rect class="cls-3" x="201.2" y="117.36" width="16.77" height="16.77"/><rect class="cls-3" x="184.43" y="117.36" width="16.77" height="16.77"/><rect class="cls-28" x="167.66" y="117.36" width="16.77" height="16.77"/><rect class="cls-9" x="150.9" y="117.36" width="16.77" height="16.77"/><rect class="cls-10" x="134.13" y="117.36" width="16.77" height="16.77"/><rect class="cls-10" x="117.36" y="117.36" width="16.77" height="16.77"/><rect class="cls-1" x="100.6" y="117.36" width="16.77" height="16.77"/><rect class="cls-24" x="83.83" y="117.36" width="16.77" height="16.77"/><rect class="cls-9" x="67.07" y="117.36" width="16.77" height="16.77"/><rect class="cls-10" x="50.3" y="117.36" width="16.77" height="16.77"/><rect class="cls-1" x="33.53" y="117.36" width="16.77" height="16.77"/><rect class="cls-10" x="16.77" y="117.36" width="16.77" height="16.77"/><rect class="cls-9" y="117.36" width="16.77" height="16.77"/><rect class="cls-18" x="318.56" y="100.6" width="16.77" height="16.77"/><rect class="cls-18" x="301.8" y="100.6" width="16.77" height="16.77"/><rect class="cls-6" x="285.03" y="100.6" width="16.77" height="16.77"/><rect class="cls-8" x="268.26" y="100.6" width="16.77" height="16.77"/><rect class="cls-9" x="251.5" y="100.6" width="16.77" height="16.77"/><rect class="cls-8" x="234.73" y="100.6" width="16.77" height="16.77"/><rect class="cls-10" x="217.96" y="100.6" width="16.77" height="16.77"/><rect class="cls-8" x="201.2" y="100.6" width="16.77" height="16.77"/><rect class="cls-8" x="184.43" y="100.6" width="16.77" height="16.77"/><rect class="cls-10" x="167.66" y="100.6" width="16.77" height="16.77"/><rect class="cls-17" x="150.9" y="100.6" width="16.77" height="16.77"/><rect class="cls-8" x="134.13" y="100.6" width="16.77" height="16.77"/><rect class="cls-15" x="117.36" y="100.6" width="16.77" height="16.77"/><rect class="cls-9" x="100.6" y="100.6" width="16.77" height="16.77"/><rect class="cls-1" x="83.83" y="100.6" width="16.77" height="16.77"/><rect class="cls-10" x="67.07" y="100.6" width="16.77" height="16.77"/><rect class="cls-8" x="50.3" y="100.6" width="16.77" height="16.77"/><rect class="cls-8" x="33.53" y="100.6" width="16.77" height="16.77"/><rect class="cls-6" x="16.77" y="100.6" width="16.77" height="16.77"/><rect class="cls-7" y="100.6" width="16.77" height="16.77"/><rect class="cls-18" x="318.56" y="83.83" width="16.77" height="16.77"/><rect class="cls-10" x="301.8" y="83.83" width="16.77" height="16.77"/><rect class="cls-8" x="285.03" y="83.83" width="16.77" height="16.77"/><rect class="cls-9" x="268.26" y="83.83" width="16.77" height="16.77"/><rect class="cls-1" x="251.5" y="83.83" width="16.77" height="16.77"/><rect class="cls-5" x="234.73" y="83.83" width="16.77" height="16.77"/><rect class="cls-15" x="217.96" y="83.83" width="16.77" height="16.77"/><rect class="cls-6" x="201.2" y="83.83" width="16.77" height="16.77"/><rect class="cls-6" x="184.43" y="83.83" width="16.77" height="16.77"/><rect class="cls-8" x="167.66" y="83.83" width="16.77" height="16.77"/><rect class="cls-10" x="150.9" y="83.83" width="16.77" height="16.77"/><rect class="cls-10" x="134.13" y="83.83" width="16.77" height="16.77"/><rect class="cls-10" x="117.36" y="83.83" width="16.77" height="16.77"/><rect class="cls-10" x="100.6" y="83.83" width="16.77" height="16.77"/><rect class="cls-1" x="83.83" y="83.83" width="16.77" height="16.77"/><rect class="cls-9" x="67.07" y="83.83" width="16.77" height="16.77"/><rect class="cls-18" x="50.3" y="83.83" width="16.77" height="16.77"/><rect class="cls-17" x="33.53" y="83.83" width="16.77" height="16.77"/><rect class="cls-24" x="16.77" y="83.83" width="16.77" height="16.77"/><rect class="cls-5" y="83.83" width="16.77" height="16.77"/><rect class="cls-10" x="318.56" y="67.07" width="16.77" height="16.77"/><rect class="cls-10" x="301.8" y="67.07" width="16.77" height="16.77"/><rect class="cls-10" x="285.03" y="67.07" width="16.77" height="16.77"/><rect class="cls-6" x="268.26" y="67.07" width="16.77" height="16.77"/><rect class="cls-10" x="251.5" y="67.07" width="16.77" height="16.77"/><rect class="cls-10" x="234.73" y="67.07" width="16.77" height="16.77"/><rect class="cls-17" x="217.96" y="67.07" width="16.77" height="16.77"/><rect class="cls-17" x="201.2" y="67.07" width="16.77" height="16.77"/><rect class="cls-22" x="184.43" y="67.07" width="16.77" height="16.77"/><rect class="cls-10" x="167.66" y="67.07" width="16.77" height="16.77"/><rect class="cls-10" x="150.9" y="67.07" width="16.77" height="16.77"/><rect class="cls-15" x="134.13" y="67.07" width="16.77" height="16.77"/><rect class="cls-22" x="117.36" y="67.07" width="16.77" height="16.77"/><rect class="cls-9" x="100.6" y="67.07" width="16.77" height="16.77"/><rect class="cls-9" x="83.83" y="67.07" width="16.77" height="16.77"/><rect class="cls-27" x="67.07" y="67.07" width="16.77" height="16.77"/><rect class="cls-8" x="50.3" y="67.07" width="16.77" height="16.77"/><rect class="cls-10" x="33.53" y="67.07" width="16.77" height="16.77"/><rect class="cls-9" x="16.77" y="67.07" width="16.77" height="16.77"/><rect class="cls-5" y="67.07" width="16.77" height="16.77"/><rect class="cls-9" x="318.56" y="50.3" width="16.77" height="16.77"/><rect class="cls-8" x="301.8" y="50.3" width="16.77" height="16.77"/><rect class="cls-10" x="285.03" y="50.3" width="16.77" height="16.77"/><rect class="cls-24" x="268.26" y="50.3" width="16.77" height="16.77"/><rect class="cls-27" x="251.5" y="50.3" width="16.77" height="16.77"/><rect class="cls-10" x="234.73" y="50.3" width="16.77" height="16.77"/><rect class="cls-22" x="217.96" y="50.3" width="16.77" height="16.77"/><rect class="cls-15" x="201.2" y="50.3" width="16.77" height="16.77"/><rect class="cls-3" x="184.43" y="50.3" width="16.77" height="16.77"/><rect class="cls-10" x="167.66" y="50.3" width="16.77" height="16.77"/><rect class="cls-8" x="150.9" y="50.3" width="16.77" height="16.77"/><rect class="cls-17" x="134.13" y="50.3" width="16.77" height="16.77"/><rect class="cls-8" x="117.36" y="50.3" width="16.77" height="16.77"/><rect class="cls-27" x="100.6" y="50.3" width="16.77" height="16.77"/><rect class="cls-18" x="83.83" y="50.3" width="16.77" height="16.77"/><rect class="cls-9" x="67.07" y="50.3" width="16.77" height="16.77"/><rect class="cls-17" x="50.3" y="50.3" width="16.77" height="16.77"/><rect class="cls-18" x="33.53" y="50.3" width="16.77" height="16.77"/><rect class="cls-9" x="16.77" y="50.3" width="16.77" height="16.77"/><rect class="cls-9" y="50.3" width="16.77" height="16.77"/><rect class="cls-10" x="318.56" y="33.53" width="16.77" height="16.77"/><rect class="cls-10" x="301.8" y="33.53" width="16.77" height="16.77"/><rect class="cls-22" x="285.03" y="33.53" width="16.77" height="16.77"/><rect class="cls-4" x="268.26" y="33.53" width="16.77" height="16.77"/><rect class="cls-9" x="251.5" y="33.53" width="16.77" height="16.77"/><rect class="cls-18" x="234.73" y="33.53" width="16.77" height="16.77"/><rect class="cls-10" x="217.96" y="33.53" width="16.77" height="16.77"/><rect class="cls-9" x="201.2" y="33.53" width="16.77" height="16.77"/><rect class="cls-6" x="184.43" y="33.53" width="16.77" height="16.77"/><rect class="cls-10" x="167.66" y="33.53" width="16.77" height="16.77"/><rect class="cls-10" x="150.9" y="33.53" width="16.77" height="16.77"/><rect class="cls-8" x="134.13" y="33.53" width="16.77" height="16.77"/><rect class="cls-22" x="117.36" y="33.53" width="16.77" height="16.77"/><rect class="cls-15" x="100.6" y="33.53" width="16.77" height="16.77"/><rect class="cls-22" x="83.83" y="33.53" width="16.77" height="16.77"/><rect class="cls-18" x="67.07" y="33.53" width="16.77" height="16.77"/><rect class="cls-8" x="50.3" y="33.53" width="16.77" height="16.77"/><rect class="cls-10" x="33.53" y="33.53" width="16.77" height="16.77"/><rect class="cls-10" x="16.77" y="33.53" width="16.77" height="16.77"/><rect class="cls-9" y="33.53" width="16.77" height="16.77"/><rect class="cls-10" x="318.56" y="16.77" width="16.77" height="16.77"/><rect class="cls-9" x="301.8" y="16.77" width="16.77" height="16.77"/><rect class="cls-17" x="285.03" y="16.77" width="16.77" height="16.77"/><rect class="cls-6" x="268.26" y="16.77" width="16.77" height="16.77"/><rect class="cls-9" x="251.5" y="16.77" width="16.77" height="16.77"/><rect class="cls-9" x="234.73" y="16.77" width="16.77" height="16.77"/><rect class="cls-15" x="217.96" y="16.77" width="16.77" height="16.77"/><rect class="cls-17" x="201.2" y="16.77" width="16.77" height="16.77"/><rect class="cls-10" x="184.43" y="16.77" width="16.77" height="16.77"/><rect class="cls-18" x="167.66" y="16.77" width="16.77" height="16.77"/><rect class="cls-22" x="150.9" y="16.77" width="16.77" height="16.77"/><rect class="cls-10" x="134.13" y="16.77" width="16.77" height="16.77"/><rect class="cls-10" x="117.36" y="16.77" width="16.77" height="16.77"/><rect class="cls-8" x="100.6" y="16.77" width="16.77" height="16.77"/><rect class="cls-8" x="83.83" y="16.77" width="16.77" height="16.77"/><rect class="cls-33" x="67.07" y="16.77" width="16.77" height="16.77"/><rect class="cls-8" x="50.3" y="16.77" width="16.77" height="16.77"/><rect class="cls-9" x="33.53" y="16.77" width="16.77" height="16.77"/><rect class="cls-1" x="16.77" y="16.77" width="16.77" height="16.77"/><rect class="cls-7" y="16.77" width="16.77" height="16.77"/><rect class="cls-6" x="318.56" width="16.77" height="16.77"/><rect class="cls-6" x="301.8" width="16.77" height="16.77"/><rect class="cls-9" x="285.03" width="16.77" height="16.77"/><rect class="cls-4" x="268.26" width="16.77" height="16.77"/><rect class="cls-9" x="251.5" width="16.77" height="16.77"/><rect class="cls-5" x="234.73" width="16.77" height="16.77"/><rect class="cls-10" x="217.96" width="16.77" height="16.77"/><rect class="cls-27" x="201.2" width="16.77" height="16.77"/><rect class="cls-8" x="184.43" width="16.77" height="16.77"/><rect class="cls-10" x="167.66" width="16.77" height="16.77"/><rect class="cls-18" x="150.9" width="16.77" height="16.77"/><rect class="cls-4" x="134.13" width="16.77" height="16.77"/><rect class="cls-10" x="117.36" width="16.77" height="16.77"/><rect class="cls-10" x="100.6" width="16.77" height="16.77"/><rect class="cls-8" x="83.83" width="16.77" height="16.77"/><rect class="cls-28" x="67.07" width="16.77" height="16.77"/><rect class="cls-9" x="50.3" width="16.77" height="16.77"/><rect class="cls-10" x="33.53" width="16.77" height="16.77"/><rect class="cls-5" x="16.77" width="16.77" height="16.77"/><rect class="cls-1" width="16.77" height="16.77"/></svg>