<svg id="Capa_1" data-name="Capa 1" xmlns="http://www.w3.org/2000/svg" viewBox="0 0 336.96 336.96"><defs><style>.cls-1{fill:#d7cfbe;}.cls-2{fill:#d8d0be;}.cls-3{fill:#d6cebc;}.cls-4{fill:#d7d1be;}.cls-5{fill:#dcd0c0;}.cls-6{fill:#d7d0be;}.cls-7{fill:#d5cdbc;}.cls-8{fill:#d8cdbc;}.cls-9{fill:#d7caba;}.cls-10{fill:#d8ccbc;}.cls-11{fill:#d8c9b9;}.cls-12{fill:#daccbc;}.cls-13{fill:#d6caba;}.cls-14{fill:#dacebc;}.cls-15{fill:#d6c9b9;}.cls-16{fill:#d8c5b7;}.cls-17{fill:#dacaba;}.cls-18{fill:#d7d0bd;}.cls-19{fill:#d6cfbd;}.cls-20{fill:#d7cfbd;}.cls-21{fill:#dbcebd;}.cls-22{fill:#dccdbf;}.cls-23{fill:#dacebd;}.cls-24{fill:#d5cdbb;}.cls-25{fill:#d6cbba;}.cls-26{fill:#d5c9b9;}.cls-27{fill:#d6c4b6;}.cls-28{fill:#d6c6b8;}.cls-29{fill:#d2c6b5;}.cls-30{fill:#d7cebd;}.cls-31{fill:#d5ccbb;}.cls-32{fill:#dad3c2;}.cls-33{fill:#dbd4c2;}.cls-34{fill:#d9d5c2;}.cls-35{fill:#d7cdbc;}.cls-36{fill:#d2cab7;}.cls-37{fill:#d8cbba;}.cls-38{fill:#dbc9ba;}.cls-39{fill:#d7c7b7;}.cls-40{fill:#d3c6b6;}.cls-41{fill:#d5cebc;}.cls-42{fill:#dbd2c1;}.cls-43{fill:#d9ccbb;}.cls-44{fill:#d8c8b9;}.cls-45{fill:#dbcfbf;}.cls-46{fill:#d9cdbc;}.cls-47{fill:#d7cebc;}.cls-48{fill:#d7c7b8;}.cls-49{fill:#d6c6b7;}.cls-50{fill:#d4c7b7;}.cls-51{fill:#d5c4b5;}.cls-52{fill:#d5c8b8;}.cls-53{fill:#d4cbba;}.cls-54{fill:#daccba;}.cls-55{fill:#ddd4c2;}.cls-56{fill:#dbcfbe;}.cls-57{fill:#dbcebe;}.cls-58{fill:#dbcbbb;}.cls-59{fill:#d5cab9;}.cls-60{fill:#dac7b9;}.cls-61{fill:#d7cbba;}.cls-62{fill:#dbcabb;}.cls-63{fill:#d8ccbb;}.cls-64{fill:#dad4c2;}.cls-65{fill:#ddd6c4;}.cls-66{fill:#d8cfbe;}.cls-67{fill:#dad0bf;}.cls-68{fill:#dacabb;}.cls-69{fill:#dacdbc;}.cls-70{fill:#dbcdbd;}.cls-71{fill:#d7c8b8;}.cls-72{fill:#d5c6b5;}.cls-73{fill:#d9c8b9;}.cls-74{fill:#d8cfbd;}.cls-75{fill:#d7cbbb;}.cls-76{fill:#d6cfbc;}.cls-77{fill:#d7d0bf;}.cls-78{fill:#d9cdbd;}.cls-79{fill:#dacbbb;}.cls-80{fill:#d6c9b8;}.cls-81{fill:#d9c6b8;}.cls-82{fill:#d5c3b5;}.cls-83{fill:#d5cbba;}.cls-84{fill:#dbcbbc;}.cls-85{fill:#d2c5b6;}.cls-86{fill:#d8cbbb;}.cls-87{fill:#d7ccbb;}.cls-88{fill:#d7c8b9;}.cls-89{fill:#dbcebf;}.cls-90{fill:#d6cdbc;}.cls-91{fill:#dacebe;}.cls-92{fill:#d9caba;}.cls-93{fill:#dcd0bf;}.cls-94{fill:#dcd6c4;}.cls-95{fill:#dbccbc;}.cls-96{fill:#dccfbf;}.cls-97{fill:#d6c8b8;}.cls-98{fill:#d7d2bf;}.cls-99{fill:#d9cdbb;}.cls-100{fill:#d8d2c0;}.cls-101{fill:#d9d3c1;}.cls-102{fill:#d9cbbb;}.cls-103{fill:#dbd0c0;}.cls-104{fill:#d2c4b4;}.cls-105{fill:#d9c8b7;}.cls-106{fill:#d7d2c0;}.cls-107{fill:#dcccbc;}.cls-108{fill:#d6ccbb;}.cls-109{fill:#d7c5b7;}.cls-110{fill:#dac9ba;}.cls-111{fill:#dacfbf;}.cls-112{fill:#dcd4c3;}.cls-113{fill:#d5c6b7;}.cls-114{fill:#d6cbbb;}.cls-115{fill:#d5ccba;}.cls-116{fill:#d7ccba;}.cls-117{fill:#d4c8b8;}.cls-118{fill:#d4cab9;}.cls-119{fill:#d9cebe;}.cls-120{fill:#d9d3c0;}.cls-121{fill:#dad1c0;}.cls-122{fill:#d5cdba;}.cls-123{fill:#d4cdbf;}.cls-124{fill:#dbd2c0;}.cls-125{fill:#dacdbe;}.cls-126{fill:#dad4c4;}.cls-127{fill:#d4ccba;}.cls-128{fill:#d0c2af;}.cls-129{fill:#d9cebd;}.cls-130{fill:#d2c9b7;}.cls-131{fill:#dbd5c3;}.cls-132{fill:#d7d0c2;}.cls-133{fill:#dbd0c2;}.cls-134{fill:#d3ccba;}</style></defs><rect class="cls-1" x="320.11" y="320.11" width="16.85" height="16.85"/><rect class="cls-2" x="303.26" y="320.11" width="16.85" height="16.85"/><rect class="cls-2" x="286.42" y="320.11" width="16.85" height="16.85"/><rect class="cls-3" x="269.57" y="320.11" width="16.85" height="16.85"/><rect class="cls-4" x="252.72" y="320.11" width="16.85" height="16.85"/><rect class="cls-5" x="235.87" y="320.11" width="16.85" height="16.85"/><rect class="cls-4" x="219.02" y="320.11" width="16.85" height="16.85"/><rect class="cls-6" x="202.18" y="320.11" width="16.85" height="16.85"/><rect class="cls-7" x="185.33" y="320.11" width="16.85" height="16.85"/><rect class="cls-8" x="168.48" y="320.11" width="16.85" height="16.85"/><rect class="cls-9" x="151.63" y="320.11" width="16.85" height="16.85"/><rect class="cls-10" x="134.78" y="320.11" width="16.85" height="16.85"/><rect class="cls-11" x="117.94" y="320.11" width="16.85" height="16.85"/><rect class="cls-12" x="101.09" y="320.11" width="16.85" height="16.85"/><rect class="cls-13" x="84.24" y="320.11" width="16.85" height="16.85"/><rect class="cls-14" x="67.39" y="320.11" width="16.85" height="16.85"/><rect class="cls-15" x="50.54" y="320.11" width="16.85" height="16.85"/><rect class="cls-16" x="33.7" y="320.11" width="16.85" height="16.85"/><rect class="cls-17" x="16.85" y="320.11" width="16.85" height="16.85"/><rect class="cls-11" y="320.11" width="16.85" height="16.85"/><rect class="cls-18" x="320.11" y="303.26" width="16.85" height="16.85"/><rect class="cls-19" x="303.26" y="303.26" width="16.85" height="16.85"/><rect class="cls-20" x="286.42" y="303.26" width="16.85" height="16.85"/><rect class="cls-4" x="269.57" y="303.26" width="16.85" height="16.85"/><rect class="cls-6" x="252.72" y="303.26" width="16.85" height="16.85"/><rect class="cls-21" x="235.87" y="303.26" width="16.85" height="16.85"/><rect class="cls-22" x="219.02" y="303.26" width="16.85" height="16.85"/><rect class="cls-2" x="202.18" y="303.26" width="16.85" height="16.85"/><rect class="cls-10" x="185.33" y="303.26" width="16.85" height="16.85"/><rect class="cls-23" x="168.48" y="303.26" width="16.85" height="16.85"/><rect class="cls-10" x="151.63" y="303.26" width="16.85" height="16.85"/><rect class="cls-3" x="134.78" y="303.26" width="16.85" height="16.85"/><rect class="cls-24" x="117.94" y="303.26" width="16.85" height="16.85"/><rect class="cls-25" x="101.09" y="303.26" width="16.85" height="16.85"/><rect class="cls-26" x="84.24" y="303.26" width="16.85" height="16.85"/><rect class="cls-17" x="67.39" y="303.26" width="16.85" height="16.85"/><rect class="cls-27" x="50.54" y="303.26" width="16.85" height="16.85"/><rect class="cls-28" x="33.7" y="303.26" width="16.85" height="16.85"/><rect class="cls-29" x="16.85" y="303.26" width="16.85" height="16.85"/><rect class="cls-9" y="303.26" width="16.85" height="16.85"/><rect class="cls-30" x="320.11" y="286.42" width="16.85" height="16.85"/><rect class="cls-31" x="303.26" y="286.42" width="16.85" height="16.85"/><rect class="cls-32" x="286.42" y="286.42" width="16.85" height="16.85"/><rect class="cls-18" x="269.57" y="286.42" width="16.85" height="16.85"/><rect class="cls-33" x="252.72" y="286.42" width="16.85" height="16.85"/><rect class="cls-34" x="235.87" y="286.42" width="16.85" height="16.85"/><rect class="cls-20" x="219.02" y="286.42" width="16.85" height="16.85"/><rect class="cls-10" x="202.18" y="286.42" width="16.85" height="16.85"/><rect class="cls-35" x="185.33" y="286.42" width="16.85" height="16.85"/><rect class="cls-1" x="168.48" y="286.42" width="16.85" height="16.85"/><rect class="cls-1" x="151.63" y="286.42" width="16.85" height="16.85"/><rect class="cls-32" x="134.78" y="286.42" width="16.85" height="16.85"/><rect class="cls-31" x="117.94" y="286.42" width="16.85" height="16.85"/><rect class="cls-36" x="101.09" y="286.42" width="16.85" height="16.85"/><rect class="cls-37" x="84.24" y="286.42" width="16.85" height="16.85"/><rect class="cls-15" x="67.39" y="286.42" width="16.85" height="16.85"/><rect class="cls-38" x="50.54" y="286.42" width="16.85" height="16.85"/><rect class="cls-16" x="33.7" y="286.42" width="16.85" height="16.85"/><rect class="cls-39" x="16.85" y="286.42" width="16.85" height="16.85"/><rect class="cls-40" y="286.42" width="16.85" height="16.85"/><rect class="cls-30" x="320.11" y="269.57" width="16.85" height="16.85"/><rect class="cls-2" x="303.26" y="269.57" width="16.85" height="16.85"/><rect class="cls-18" x="286.42" y="269.57" width="16.85" height="16.85"/><rect class="cls-10" x="269.57" y="269.57" width="16.85" height="16.85"/><rect class="cls-2" x="252.72" y="269.57" width="16.85" height="16.85"/><rect class="cls-41" x="235.87" y="269.57" width="16.85" height="16.85"/><rect class="cls-42" x="219.02" y="269.57" width="16.85" height="16.85"/><rect class="cls-43" x="202.18" y="269.57" width="16.85" height="16.85"/><rect class="cls-44" x="185.33" y="269.57" width="16.85" height="16.85"/><rect class="cls-45" x="168.48" y="269.57" width="16.85" height="16.85"/><rect class="cls-46" x="151.63" y="269.57" width="16.85" height="16.85"/><rect class="cls-9" x="134.78" y="269.57" width="16.85" height="16.85"/><rect class="cls-30" x="117.94" y="269.57" width="16.85" height="16.85"/><rect class="cls-47" x="101.09" y="269.57" width="16.85" height="16.85"/><rect class="cls-23" x="84.24" y="269.57" width="16.85" height="16.85"/><rect class="cls-48" x="67.39" y="269.57" width="16.85" height="16.85"/><rect class="cls-49" x="50.54" y="269.57" width="16.85" height="16.85"/><rect class="cls-50" x="33.7" y="269.57" width="16.85" height="16.85"/><rect class="cls-51" x="16.85" y="269.57" width="16.85" height="16.85"/><rect class="cls-52" y="269.57" width="16.85" height="16.85"/><rect class="cls-20" x="320.11" y="252.72" width="16.85" height="16.85"/><rect class="cls-53" x="303.26" y="252.72" width="16.85" height="16.85"/><rect class="cls-3" x="286.42" y="252.72" width="16.85" height="16.85"/><rect class="cls-4" x="269.57" y="252.72" width="16.85" height="16.85"/><rect class="cls-6" x="252.72" y="252.72" width="16.85" height="16.85"/><rect class="cls-54" x="235.87" y="252.72" width="16.85" height="16.85"/><rect class="cls-55" x="219.02" y="252.72" width="16.85" height="16.85"/><rect class="cls-4" x="202.18" y="252.72" width="16.85" height="16.85"/><rect class="cls-10" x="185.33" y="252.72" width="16.85" height="16.85"/><rect class="cls-56" x="168.48" y="252.72" width="16.85" height="16.85"/><rect class="cls-17" x="151.63" y="252.72" width="16.85" height="16.85"/><rect class="cls-57" x="134.78" y="252.72" width="16.85" height="16.85"/><rect class="cls-58" x="117.94" y="252.72" width="16.85" height="16.85"/><rect class="cls-59" x="101.09" y="252.72" width="16.85" height="16.85"/><rect class="cls-60" x="84.24" y="252.72" width="16.85" height="16.85"/><rect class="cls-61" x="67.39" y="252.72" width="16.85" height="16.85"/><rect class="cls-46" x="50.54" y="252.72" width="16.85" height="16.85"/><rect class="cls-62" x="33.7" y="252.72" width="16.85" height="16.85"/><rect class="cls-63" x="16.85" y="252.72" width="16.85" height="16.85"/><rect class="cls-40" y="252.72" width="16.85" height="16.85"/><rect class="cls-20" x="320.11" y="235.87" width="16.85" height="16.85"/><rect class="cls-10" x="303.26" y="235.87" width="16.85" height="16.85"/><rect class="cls-10" x="286.42" y="235.87" width="16.85" height="16.85"/><rect class="cls-64" x="269.57" y="235.87" width="16.85" height="16.85"/><rect class="cls-65" x="252.72" y="235.87" width="16.85" height="16.85"/><rect class="cls-66" x="235.87" y="235.87" width="16.85" height="16.85"/><rect class="cls-67" x="219.02" y="235.87" width="16.85" height="16.85"/><rect class="cls-68" x="202.18" y="235.87" width="16.85" height="16.85"/><rect class="cls-10" x="185.33" y="235.87" width="16.85" height="16.85"/><rect class="cls-57" x="168.48" y="235.87" width="16.85" height="16.85"/><rect class="cls-9" x="151.63" y="235.87" width="16.85" height="16.85"/><rect class="cls-69" x="134.78" y="235.87" width="16.85" height="16.85"/><rect class="cls-70" x="117.94" y="235.87" width="16.85" height="16.85"/><rect class="cls-71" x="101.09" y="235.87" width="16.85" height="16.85"/><rect class="cls-72" x="84.24" y="235.87" width="16.85" height="16.85"/><rect class="cls-73" x="67.39" y="235.87" width="16.85" height="16.85"/><rect class="cls-9" x="50.54" y="235.87" width="16.85" height="16.85"/><rect class="cls-9" x="33.7" y="235.87" width="16.85" height="16.85"/><rect class="cls-74" x="16.85" y="235.87" width="16.85" height="16.85"/><rect class="cls-75" y="235.87" width="16.85" height="16.85"/><rect class="cls-1" x="320.11" y="219.02" width="16.85" height="16.85"/><rect class="cls-1" x="303.26" y="219.02" width="16.85" height="16.85"/><rect class="cls-35" x="286.42" y="219.02" width="16.85" height="16.85"/><rect class="cls-76" x="269.57" y="219.02" width="16.85" height="16.85"/><rect class="cls-77" x="252.72" y="219.02" width="16.85" height="16.85"/><rect class="cls-30" x="235.87" y="219.02" width="16.85" height="16.85"/><rect class="cls-78" x="219.02" y="219.02" width="16.85" height="16.85"/><rect class="cls-23" x="202.18" y="219.02" width="16.85" height="16.85"/><rect class="cls-79" x="185.33" y="219.02" width="16.85" height="16.85"/><rect class="cls-35" x="168.48" y="219.02" width="16.85" height="16.85"/><rect class="cls-1" x="151.63" y="219.02" width="16.85" height="16.85"/><rect class="cls-12" x="134.78" y="219.02" width="16.85" height="16.85"/><rect class="cls-80" x="117.94" y="219.02" width="16.85" height="16.85"/><rect class="cls-50" x="101.09" y="219.02" width="16.85" height="16.85"/><rect class="cls-60" x="84.24" y="219.02" width="16.85" height="16.85"/><rect class="cls-44" x="67.39" y="219.02" width="16.85" height="16.85"/><rect class="cls-81" x="50.54" y="219.02" width="16.85" height="16.85"/><rect class="cls-82" x="33.7" y="219.02" width="16.85" height="16.85"/><rect class="cls-15" x="16.85" y="219.02" width="16.85" height="16.85"/><rect class="cls-9" y="219.02" width="16.85" height="16.85"/><rect class="cls-83" x="320.11" y="202.18" width="16.85" height="16.85"/><rect class="cls-30" x="303.26" y="202.18" width="16.85" height="16.85"/><rect class="cls-35" x="286.42" y="202.18" width="16.85" height="16.85"/><rect class="cls-78" x="269.57" y="202.18" width="16.85" height="16.85"/><rect class="cls-84" x="252.72" y="202.18" width="16.85" height="16.85"/><rect class="cls-85" x="235.87" y="202.18" width="16.85" height="16.85"/><rect class="cls-78" x="219.02" y="202.18" width="16.85" height="16.85"/><rect class="cls-86" x="202.18" y="202.18" width="16.85" height="16.85"/><rect class="cls-63" x="185.33" y="202.18" width="16.85" height="16.85"/><rect class="cls-44" x="168.48" y="202.18" width="16.85" height="16.85"/><rect class="cls-30" x="151.63" y="202.18" width="16.85" height="16.85"/><rect class="cls-46" x="134.78" y="202.18" width="16.85" height="16.85"/><rect class="cls-87" x="117.94" y="202.18" width="16.85" height="16.85"/><rect class="cls-81" x="101.09" y="202.18" width="16.85" height="16.85"/><rect class="cls-60" x="84.24" y="202.18" width="16.85" height="16.85"/><rect class="cls-88" x="67.39" y="202.18" width="16.85" height="16.85"/><rect class="cls-80" x="50.54" y="202.18" width="16.85" height="16.85"/><rect class="cls-9" x="33.7" y="202.18" width="16.85" height="16.85"/><rect class="cls-89" x="16.85" y="202.18" width="16.85" height="16.85"/><rect class="cls-86" y="202.18" width="16.85" height="16.85"/><rect class="cls-47" x="320.11" y="185.33" width="16.85" height="16.85"/><rect class="cls-58" x="303.26" y="185.33" width="16.85" height="16.85"/><rect class="cls-90" x="286.42" y="185.33" width="16.85" height="16.85"/><rect class="cls-1" x="269.57" y="185.33" width="16.85" height="16.85"/><rect class="cls-30" x="252.72" y="185.33" width="16.85" height="16.85"/><rect class="cls-10" x="235.87" y="185.33" width="16.85" height="16.85"/><rect class="cls-35" x="219.02" y="185.33" width="16.85" height="16.85"/><rect class="cls-47" x="202.18" y="185.33" width="16.85" height="16.85"/><rect class="cls-45" x="185.33" y="185.33" width="16.85" height="16.85"/><rect class="cls-46" x="168.48" y="185.33" width="16.85" height="16.85"/><rect class="cls-57" x="151.63" y="185.33" width="16.85" height="16.85"/><rect class="cls-11" x="134.78" y="185.33" width="16.85" height="16.85"/><rect class="cls-10" x="117.94" y="185.33" width="16.85" height="16.85"/><rect class="cls-23" x="101.09" y="185.33" width="16.85" height="16.85"/><rect class="cls-79" x="84.24" y="185.33" width="16.85" height="16.85"/><rect class="cls-79" x="67.39" y="185.33" width="16.85" height="16.85"/><rect class="cls-37" x="50.54" y="185.33" width="16.85" height="16.85"/><rect class="cls-39" x="33.7" y="185.33" width="16.85" height="16.85"/><rect class="cls-9" x="16.85" y="185.33" width="16.85" height="16.85"/><rect class="cls-50" y="185.33" width="16.85" height="16.85"/><rect class="cls-91" x="320.11" y="168.48" width="16.85" height="16.85"/><rect class="cls-92" x="303.26" y="168.48" width="16.85" height="16.85"/><rect class="cls-93" x="286.42" y="168.48" width="16.85" height="16.85"/><rect class="cls-77" x="269.57" y="168.48" width="16.85" height="16.85"/><rect class="cls-94" x="252.72" y="168.48" width="16.85" height="16.85"/><rect class="cls-95" x="235.87" y="168.48" width="16.85" height="16.85"/><rect class="cls-20" x="219.02" y="168.48" width="16.85" height="16.85"/><rect class="cls-96" x="202.18" y="168.48" width="16.85" height="16.85"/><rect class="cls-10" x="185.33" y="168.48" width="16.85" height="16.85"/><rect class="cls-90" x="168.48" y="168.48" width="16.85" height="16.85"/><rect class="cls-38" x="151.63" y="168.48" width="16.85" height="16.85"/><rect class="cls-10" x="134.78" y="168.48" width="16.85" height="16.85"/><rect class="cls-1" x="117.94" y="168.48" width="16.85" height="16.85"/><rect class="cls-46" x="101.09" y="168.48" width="16.85" height="16.85"/><rect class="cls-10" x="84.24" y="168.48" width="16.85" height="16.85"/><rect class="cls-15" x="67.39" y="168.48" width="16.85" height="16.85"/><rect class="cls-11" x="50.54" y="168.48" width="16.85" height="16.85"/><rect class="cls-37" x="33.7" y="168.48" width="16.85" height="16.85"/><rect class="cls-97" x="16.85" y="168.48" width="16.85" height="16.85"/><rect class="cls-40" y="168.48" width="16.85" height="16.85"/><rect class="cls-21" x="320.11" y="151.63" width="16.85" height="16.85"/><rect class="cls-98" x="303.26" y="151.63" width="16.85" height="16.85"/><rect class="cls-2" x="286.42" y="151.63" width="16.85" height="16.85"/><rect class="cls-7" x="269.57" y="151.63" width="16.85" height="16.85"/><rect class="cls-18" x="252.72" y="151.63" width="16.85" height="16.85"/><rect class="cls-66" x="235.87" y="151.63" width="16.85" height="16.85"/><rect class="cls-95" x="219.02" y="151.63" width="16.85" height="16.85"/><rect class="cls-9" x="202.18" y="151.63" width="16.85" height="16.85"/><rect class="cls-63" x="185.33" y="151.63" width="16.85" height="16.85"/><rect class="cls-66" x="168.48" y="151.63" width="16.85" height="16.85"/><rect class="cls-20" x="151.63" y="151.63" width="16.85" height="16.85"/><rect class="cls-45" x="134.78" y="151.63" width="16.85" height="16.85"/><rect class="cls-2" x="117.94" y="151.63" width="16.85" height="16.85"/><rect class="cls-25" x="101.09" y="151.63" width="16.85" height="16.85"/><rect class="cls-63" x="84.24" y="151.63" width="16.85" height="16.85"/><rect class="cls-63" x="67.39" y="151.63" width="16.85" height="16.85"/><rect class="cls-99" x="50.54" y="151.63" width="16.85" height="16.85"/><rect class="cls-63" x="33.7" y="151.63" width="16.85" height="16.85"/><rect class="cls-9" x="16.85" y="151.63" width="16.85" height="16.85"/><rect class="cls-23" y="151.63" width="16.85" height="16.85"/><rect class="cls-18" x="320.11" y="134.78" width="16.85" height="16.85"/><rect class="cls-98" x="303.26" y="134.78" width="16.85" height="16.85"/><rect class="cls-100" x="286.42" y="134.78" width="16.85" height="16.85"/><rect class="cls-101" x="269.57" y="134.78" width="16.85" height="16.85"/><rect class="cls-25" x="252.72" y="134.78" width="16.85" height="16.85"/><rect class="cls-102" x="235.87" y="134.78" width="16.85" height="16.85"/><rect class="cls-9" x="219.02" y="134.78" width="16.85" height="16.85"/><rect class="cls-8" x="202.18" y="134.78" width="16.85" height="16.85"/><rect class="cls-91" x="185.33" y="134.78" width="16.85" height="16.85"/><rect class="cls-103" x="168.48" y="134.78" width="16.85" height="16.85"/><rect class="cls-10" x="151.63" y="134.78" width="16.85" height="16.85"/><rect class="cls-104" x="134.78" y="134.78" width="16.85" height="16.85"/><rect class="cls-103" x="117.94" y="134.78" width="16.85" height="16.85"/><rect class="cls-44" x="101.09" y="134.78" width="16.85" height="16.85"/><rect class="cls-63" x="84.24" y="134.78" width="16.85" height="16.85"/><rect class="cls-9" x="67.39" y="134.78" width="16.85" height="16.85"/><rect class="cls-9" x="50.54" y="134.78" width="16.85" height="16.85"/><rect class="cls-71" x="33.7" y="134.78" width="16.85" height="16.85"/><rect class="cls-102" x="16.85" y="134.78" width="16.85" height="16.85"/><rect class="cls-105" y="134.78" width="16.85" height="16.85"/><rect class="cls-33" x="320.11" y="117.94" width="16.85" height="16.85"/><rect class="cls-10" x="303.26" y="117.94" width="16.85" height="16.85"/><rect class="cls-42" x="286.42" y="117.94" width="16.85" height="16.85"/><rect class="cls-106" x="269.57" y="117.94" width="16.85" height="16.85"/><rect class="cls-78" x="252.72" y="117.94" width="16.85" height="16.85"/><rect class="cls-107" x="235.87" y="117.94" width="16.85" height="16.85"/><rect class="cls-12" x="219.02" y="117.94" width="16.85" height="16.85"/><rect class="cls-108" x="202.18" y="117.94" width="16.85" height="16.85"/><rect class="cls-45" x="185.33" y="117.94" width="16.85" height="16.85"/><rect class="cls-8" x="168.48" y="117.94" width="16.85" height="16.85"/><rect class="cls-46" x="151.63" y="117.94" width="16.85" height="16.85"/><rect class="cls-81" x="134.78" y="117.94" width="16.85" height="16.85"/><rect class="cls-20" x="117.94" y="117.94" width="16.85" height="16.85"/><rect class="cls-78" x="101.09" y="117.94" width="16.85" height="16.85"/><rect class="cls-37" x="84.24" y="117.94" width="16.85" height="16.85"/><rect class="cls-46" x="67.39" y="117.94" width="16.85" height="16.85"/><rect class="cls-109" x="50.54" y="117.94" width="16.85" height="16.85"/><rect class="cls-110" x="33.7" y="117.94" width="16.85" height="16.85"/><rect class="cls-44" x="16.85" y="117.94" width="16.85" height="16.85"/><rect class="cls-10" y="117.94" width="16.85" height="16.85"/><rect class="cls-111" x="320.11" y="101.09" width="16.85" height="16.85"/><rect class="cls-30" x="303.26" y="101.09" width="16.85" height="16.85"/><rect class="cls-25" x="286.42" y="101.09" width="16.85" height="16.85"/><rect class="cls-1" x="269.57" y="101.09" width="16.85" height="16.85"/><rect class="cls-6" x="252.72" y="101.09" width="16.85" height="16.85"/><rect class="cls-90" x="235.87" y="101.09" width="16.85" height="16.85"/><rect class="cls-45" x="219.02" y="101.09" width="16.85" height="16.85"/><rect class="cls-2" x="202.18" y="101.09" width="16.85" height="16.85"/><rect class="cls-63" x="185.33" y="101.09" width="16.85" height="16.85"/><rect class="cls-66" x="168.48" y="101.09" width="16.85" height="16.85"/><rect class="cls-18" x="151.63" y="101.09" width="16.85" height="16.85"/><rect class="cls-10" x="134.78" y="101.09" width="16.85" height="16.85"/><rect class="cls-112" x="117.94" y="101.09" width="16.85" height="16.85"/><rect class="cls-21" x="101.09" y="101.09" width="16.85" height="16.85"/><rect class="cls-57" x="84.24" y="101.09" width="16.85" height="16.85"/><rect class="cls-1" x="67.39" y="101.09" width="16.85" height="16.85"/><rect class="cls-9" x="50.54" y="101.09" width="16.85" height="16.85"/><rect class="cls-113" x="33.7" y="101.09" width="16.85" height="16.85"/><rect class="cls-26" x="16.85" y="101.09" width="16.85" height="16.85"/><rect class="cls-15" y="101.09" width="16.85" height="16.85"/><rect class="cls-2" x="320.11" y="84.24" width="16.85" height="16.85"/><rect class="cls-56" x="303.26" y="84.24" width="16.85" height="16.85"/><rect class="cls-114" x="286.42" y="84.24" width="16.85" height="16.85"/><rect class="cls-59" x="269.57" y="84.24" width="16.85" height="16.85"/><rect class="cls-77" x="252.72" y="84.24" width="16.85" height="16.85"/><rect class="cls-115" x="235.87" y="84.24" width="16.85" height="16.85"/><rect class="cls-8" x="219.02" y="84.24" width="16.85" height="16.85"/><rect class="cls-75" x="202.18" y="84.24" width="16.85" height="16.85"/><rect class="cls-7" x="185.33" y="84.24" width="16.85" height="16.85"/><rect class="cls-7" x="168.48" y="84.24" width="16.85" height="16.85"/><rect class="cls-6" x="151.63" y="84.24" width="16.85" height="16.85"/><rect class="cls-20" x="134.78" y="84.24" width="16.85" height="16.85"/><rect class="cls-116" x="117.94" y="84.24" width="16.85" height="16.85"/><rect class="cls-44" x="101.09" y="84.24" width="16.85" height="16.85"/><rect class="cls-117" x="84.24" y="84.24" width="16.85" height="16.85"/><rect class="cls-69" x="67.39" y="84.24" width="16.85" height="16.85"/><rect class="cls-37" x="50.54" y="84.24" width="16.85" height="16.85"/><rect class="cls-48" x="33.7" y="84.24" width="16.85" height="16.85"/><rect class="cls-118" x="16.85" y="84.24" width="16.85" height="16.85"/><rect class="cls-119" y="84.24" width="16.85" height="16.85"/><rect class="cls-20" x="320.11" y="67.39" width="16.85" height="16.85"/><rect class="cls-1" x="303.26" y="67.39" width="16.85" height="16.85"/><rect class="cls-45" x="286.42" y="67.39" width="16.85" height="16.85"/><rect class="cls-24" x="269.57" y="67.39" width="16.85" height="16.85"/><rect class="cls-32" x="252.72" y="67.39" width="16.85" height="16.85"/><rect class="cls-67" x="235.87" y="67.39" width="16.85" height="16.85"/><rect class="cls-20" x="219.02" y="67.39" width="16.85" height="16.85"/><rect class="cls-77" x="202.18" y="67.39" width="16.85" height="16.85"/><rect class="cls-120" x="185.33" y="67.39" width="16.85" height="16.85"/><rect class="cls-121" x="168.48" y="67.39" width="16.85" height="16.85"/><rect class="cls-23" x="151.63" y="67.39" width="16.85" height="16.85"/><rect class="cls-30" x="134.78" y="67.39" width="16.85" height="16.85"/><rect class="cls-122" x="117.94" y="67.39" width="16.85" height="16.85"/><rect class="cls-20" x="101.09" y="67.39" width="16.85" height="16.85"/><rect class="cls-57" x="84.24" y="67.39" width="16.85" height="16.85"/><rect class="cls-6" x="67.39" y="67.39" width="16.85" height="16.85"/><rect class="cls-90" x="50.54" y="67.39" width="16.85" height="16.85"/><rect class="cls-122" x="33.7" y="67.39" width="16.85" height="16.85"/><rect class="cls-32" x="16.85" y="67.39" width="16.85" height="16.85"/><rect class="cls-123" y="67.39" width="16.85" height="16.85"/><rect class="cls-8" x="320.11" y="50.54" width="16.85" height="16.85"/><rect class="cls-96" x="303.26" y="50.54" width="16.85" height="16.85"/><rect class="cls-35" x="286.42" y="50.54" width="16.85" height="16.85"/><rect class="cls-124" x="269.57" y="50.54" width="16.85" height="16.85"/><rect class="cls-77" x="252.72" y="50.54" width="16.85" height="16.85"/><rect class="cls-77" x="235.87" y="50.54" width="16.85" height="16.85"/><rect class="cls-1" x="219.02" y="50.54" width="16.85" height="16.85"/><rect class="cls-19" x="202.18" y="50.54" width="16.85" height="16.85"/><rect class="cls-8" x="185.33" y="50.54" width="16.85" height="16.85"/><rect class="cls-31" x="168.48" y="50.54" width="16.85" height="16.85"/><rect class="cls-10" x="151.63" y="50.54" width="16.85" height="16.85"/><rect class="cls-101" x="134.78" y="50.54" width="16.85" height="16.85"/><rect class="cls-31" x="117.94" y="50.54" width="16.85" height="16.85"/><rect class="cls-125" x="101.09" y="50.54" width="16.85" height="16.85"/><rect class="cls-10" x="84.24" y="50.54" width="16.85" height="16.85"/><rect class="cls-37" x="67.39" y="50.54" width="16.85" height="16.85"/><rect class="cls-71" x="50.54" y="50.54" width="16.85" height="16.85"/><rect class="cls-9" x="33.7" y="50.54" width="16.85" height="16.85"/><rect class="cls-10" x="16.85" y="50.54" width="16.85" height="16.85"/><rect class="cls-126" y="50.54" width="16.85" height="16.85"/><rect class="cls-42" x="320.11" y="33.7" width="16.85" height="16.85"/><rect class="cls-8" x="303.26" y="33.7" width="16.85" height="16.85"/><rect class="cls-73" x="286.42" y="33.7" width="16.85" height="16.85"/><rect class="cls-78" x="269.57" y="33.7" width="16.85" height="16.85"/><rect class="cls-77" x="252.72" y="33.7" width="16.85" height="16.85"/><rect class="cls-2" x="235.87" y="33.7" width="16.85" height="16.85"/><rect class="cls-30" x="219.02" y="33.7" width="16.85" height="16.85"/><rect class="cls-56" x="202.18" y="33.7" width="16.85" height="16.85"/><rect class="cls-24" x="185.33" y="33.7" width="16.85" height="16.85"/><rect class="cls-32" x="168.48" y="33.7" width="16.85" height="16.85"/><rect class="cls-56" x="151.63" y="33.7" width="16.85" height="16.85"/><rect class="cls-3" x="134.78" y="33.7" width="16.85" height="16.85"/><rect class="cls-10" x="117.94" y="33.7" width="16.85" height="16.85"/><rect class="cls-66" x="101.09" y="33.7" width="16.85" height="16.85"/><rect class="cls-20" x="84.24" y="33.7" width="16.85" height="16.85"/><rect class="cls-20" x="67.39" y="33.7" width="16.85" height="16.85"/><rect class="cls-114" x="50.54" y="33.7" width="16.85" height="16.85"/><rect class="cls-61" x="33.7" y="33.7" width="16.85" height="16.85"/><rect class="cls-127" x="16.85" y="33.7" width="16.85" height="16.85"/><rect class="cls-20" y="33.7" width="16.85" height="16.85"/><rect class="cls-20" x="320.11" y="16.85" width="16.85" height="16.85"/><rect class="cls-56" x="303.26" y="16.85" width="16.85" height="16.85"/><rect class="cls-20" x="286.42" y="16.85" width="16.85" height="16.85"/><rect class="cls-128" x="269.57" y="16.85" width="16.85" height="16.85"/><rect class="cls-3" x="252.72" y="16.85" width="16.85" height="16.85"/><rect class="cls-30" x="235.87" y="16.85" width="16.85" height="16.85"/><rect class="cls-129" x="219.02" y="16.85" width="16.85" height="16.85"/><rect class="cls-7" x="202.18" y="16.85" width="16.85" height="16.85"/><rect class="cls-1" x="185.33" y="16.85" width="16.85" height="16.85"/><rect class="cls-1" x="168.48" y="16.85" width="16.85" height="16.85"/><rect class="cls-3" x="151.63" y="16.85" width="16.85" height="16.85"/><rect class="cls-3" x="134.78" y="16.85" width="16.85" height="16.85"/><rect class="cls-4" x="117.94" y="16.85" width="16.85" height="16.85"/><rect class="cls-1" x="101.09" y="16.85" width="16.85" height="16.85"/><rect class="cls-25" x="84.24" y="16.85" width="16.85" height="16.85"/><rect class="cls-47" x="67.39" y="16.85" width="16.85" height="16.85"/><rect class="cls-98" x="50.54" y="16.85" width="16.85" height="16.85"/><rect class="cls-90" x="33.7" y="16.85" width="16.85" height="16.85"/><rect class="cls-35" x="16.85" y="16.85" width="16.85" height="16.85"/><rect class="cls-24" y="16.85" width="16.85" height="16.85"/><rect class="cls-20" x="320.11" width="16.85" height="16.85"/><rect class="cls-4" x="303.26" width="16.85" height="16.85"/><rect class="cls-8" x="286.42" width="16.85" height="16.85"/><rect class="cls-130" x="269.57" width="16.85" height="16.85"/><rect class="cls-8" x="252.72" width="16.85" height="16.85"/><rect class="cls-24" x="235.87" width="16.85" height="16.85"/><rect class="cls-115" x="219.02" width="16.85" height="16.85"/><rect class="cls-31" x="202.18" width="16.85" height="16.85"/><rect class="cls-6" x="185.33" width="16.85" height="16.85"/><rect class="cls-32" x="168.48" width="16.85" height="16.85"/><rect class="cls-59" x="151.63" width="16.85" height="16.85"/><rect class="cls-20" x="134.78" width="16.85" height="16.85"/><rect class="cls-131" x="117.94" width="16.85" height="16.85"/><rect class="cls-35" x="101.09" width="16.85" height="16.85"/><rect class="cls-18" x="84.24" width="16.85" height="16.85"/><rect class="cls-6" x="67.39" width="16.85" height="16.85"/><rect class="cls-132" x="50.54" width="16.85" height="16.85"/><rect class="cls-133" x="33.7" width="16.85" height="16.85"/><rect class="cls-18" x="16.85" width="16.85" height="16.85"/><rect class="cls-134" width="16.85" height="16.85"/></svg>