<?xml version="1.0" encoding="UTF-8" standalone="no"?>
<!-- Created with Inkscape (http://www.inkscape.org/) -->

<svg
   width="210.34375mm"
   height="210.34375mm"
   viewBox="0 0 210.34375 210.34375"
   version="1.1"
   id="svg1"
   xml:space="preserve"
   inkscape:version="1.3 (0e150ed6c4, 2023-07-21)"
   sodipodi:docname="stone-texture.svg"
   xmlns:inkscape="http://www.inkscape.org/namespaces/inkscape"
   xmlns:sodipodi="http://sodipodi.sourceforge.net/DTD/sodipodi-0.dtd"
   xmlns="http://www.w3.org/2000/svg"
   xmlns:svg="http://www.w3.org/2000/svg"><sodipodi:namedview
     id="namedview1"
     pagecolor="#ffffff"
     bordercolor="#999999"
     borderopacity="1"
     inkscape:showpageshadow="2"
     inkscape:pageopacity="0"
     inkscape:pagecheckerboard="0"
     inkscape:deskcolor="#d1d1d1"
     inkscape:document-units="mm"
     inkscape:zoom="0.25"
     inkscape:cx="-1094"
     inkscape:cy="86"
     inkscape:window-width="1920"
     inkscape:window-height="1017"
     inkscape:window-x="-8"
     inkscape:window-y="-8"
     inkscape:window-maximized="1"
     inkscape:current-layer="layer1" /><defs
     id="defs1" /><g
     inkscape:label="Capa 1"
     inkscape:groupmode="layer"
     id="layer1"
     transform="translate(0.79375039,-1.0583334)"><g
       id="g8"
       transform="matrix(3.1054688,0,0,3.1054688,-196.34772,-233.93509)"><path
         style="fill:#8e8e8e"
         d="m 84.137502,141.2875 v -2.11667 h 4.233333 4.233333 v 2.11667 2.11667 h -4.233333 -4.233333 z m 21.166668,-4.23333 v -2.11667 h 4.23333 4.23333 v 2.11667 2.11666 h -4.23333 -4.23333 z m -38.1,-4.23334 v -2.11666 h 10.583333 10.583332 v 2.11666 2.11667 H 77.787503 67.20417 Z m 55.03333,0 v -2.11666 h 4.23333 4.23334 v 2.11666 2.11667 h -4.23334 -4.23333 z m -25.399998,-6.35 v -4.23333 h 4.233328 4.23334 v -2.11666 -2.11667 h 4.23333 4.23333 v 2.11667 2.11666 h -4.23333 -4.23333 v 4.23333 4.23334 h -4.23334 -4.233328 z m 25.399998,-2.11666 v -2.11667 h 2.11667 2.11666 v 2.11667 2.11666 h -2.11666 -2.11667 z m -50.799997,-4.23333 v -2.11667 h 2.116666 2.116667 v 2.11667 2.11666 h -2.116667 -2.116666 z m 12.699999,0 v -2.11667 h 4.233333 4.233333 v 2.11667 2.11666 H 88.370835 84.137502 Z M 122.2375,115.8875 v -2.11666 h -10.58333 -10.58334 v -2.11667 -2.11667 h 14.81667 14.81667 v 2.11667 2.11667 h -2.11667 -2.11667 v 2.11666 2.11667 h -2.11666 -2.11667 z m -55.03333,-4.23333 v -2.11667 h 4.233333 4.233333 v 2.11667 2.11667 H 71.437503 67.20417 Z m 12.699999,0 v -2.11667 h 2.116667 2.116666 v 2.11667 2.11667 H 82.020836 79.904169 Z M 62.970837,103.1875 v -2.11666 h 4.233333 4.233333 v 2.11666 2.11667 H 67.20417 62.970837 Z m 25.399998,0 v -2.11666 h 4.233333 4.233334 v 2.11666 2.11667 h -4.233334 -4.233333 z m 25.399995,0 v -2.11666 h 6.35 6.35 v 2.11666 2.11667 h -6.35 -6.35 z M 67.20417,92.60417 v -4.233333 h 2.116666 2.116667 v 2.116666 2.116667 h 2.116666 2.116667 v 2.116666 2.116667 H 71.437503 67.20417 Z m 38.1,2.116666 V 92.60417 h 10.58333 10.58333 v 2.116666 2.116667 H 115.8875 105.30417 Z M 92.604168,90.487503 v -2.116666 h 2.116667 2.116667 v 2.116666 2.116667 H 94.720835 92.604168 Z M 118.00417,86.25417 v -2.116666 h 2.11666 2.11667 v 2.116666 2.116667 h -2.11667 -2.11666 z M 71.437503,82.020837 v -2.116666 h 8.466666 8.466666 v -2.116667 -2.116667 h 4.233333 4.233334 v 2.116667 2.116667 h -4.233334 -4.233333 v 2.116666 2.116667 h -8.466666 -8.466666 z m 33.866667,0 v -2.116666 h -2.11667 -2.11667 v -2.116667 -2.116667 h 2.11667 2.11667 v 2.116667 2.116667 h 4.23333 4.23333 v 2.116666 2.116667 h -4.23333 -4.23333 z"
         id="path15" /><path
         style="fill:#888888"
         d="m 118.00417,124.73214 c 0,-1.15408 -0.22835,-2.19899 0.0225,-2.44988 0.25089,-0.25089 1.31801,-0.0448 2.4721,-0.0448 h 1.73869 v 2.11667 2.11666 h -2.11667 -2.11666 z m -4.23334,-4.6113 v -2.11667 h 2.11667 2.11667 v 1.73869 c 0,1.15409 0.23945,2.21011 -0.0114,2.461 -0.25089,0.25088 -1.32912,0.0336 -2.48321,0.0336 h -1.73869 z m -12.7,-38.100003 v -2.116666 h 2.11667 2.11667 v 2.116666 2.116667 h -2.11667 -2.11667 z"
         id="path14"
         sodipodi:nodetypes="ssscccccsccccsssccccccccccc" /><path
         style="fill:#868686"
         d="m 117.77904,122.34232 c -0.48222,-0.54535 -0.17182,-0.80415 0.34482,-0.28751 0.22521,0.22521 0.59797,0.61888 0.59797,0.70204 0,0.27781 -0.58143,-0.006 -0.94279,-0.41453 z M 96.837502,86.25417 v -2.116666 h 2.116666 2.116662 v 2.116666 2.116667 h -2.116662 -2.116666 z"
         id="path13"
         sodipodi:nodetypes="ssssccccccccc" /><path
         style="fill:#7f7f7f"
         d="m 75.670836,103.1875 v -2.11666 h 2.116667 2.116666 v 2.11666 2.11667 H 77.787503 75.670836 Z M 105.30417,86.25417 v -2.116666 h 2.11666 2.11667 v 2.116666 2.116667 h -2.11667 -2.11666 z"
         id="path12" /><path
         style="fill:#7e7e7e"
         d="m 92.604168,141.2875 v -2.11667 h 2.116667 2.116667 v -2.11666 -2.11667 h 4.233328 4.23334 v 2.11667 2.11666 h 2.11666 2.11667 v 2.11667 2.11667 h -8.46667 -8.466662 z m 29.633332,0 v -2.11667 h 2.11667 2.11666 v -2.11666 -2.11667 h 2.11667 2.11667 v 4.23333 4.23334 h -4.23334 -4.23333 z m -59.266663,-8.46667 v -6.35 h 2.116666 2.116667 v -2.11666 -2.11667 h -2.116667 -2.116666 v -8.46666 -8.46667 h 4.233333 4.233333 v -4.23333 -4.233337 h 6.35 6.349999 v 4.233337 4.23333 h -2.116666 -2.116667 v -2.11667 -2.11666 h -2.116666 -2.116667 v 4.23333 4.23333 H 71.437503 67.20417 v 4.23334 4.23333 h 2.116666 2.116667 v 2.11667 2.11666 h 4.233333 4.233333 v 2.11667 2.11666 h -6.35 -6.349999 v 4.23334 4.23333 h 4.233333 4.233333 v 2.11667 2.11666 h -6.35 -6.349999 z m 50.799993,2.11667 v -4.23333 h 4.23334 4.23333 v 2.11666 2.11667 h -2.11667 -2.11666 v 2.11667 2.11666 h -2.11667 -2.11667 z m -25.399995,-2.11667 v -2.11666 h 2.116667 2.116666 v 2.11666 2.11667 h -2.116666 -2.116667 z m 38.099995,-4.23333 v -2.11667 h 2.11667 2.11667 v 2.11667 2.11667 h -2.11667 -2.11667 z m -42.333328,-4.23333 v -2.11667 h 6.35 6.35 v 2.11667 2.11666 h -6.35 -6.35 z m 21.166668,0 v -2.11667 h 6.35 6.35 v -2.11666 -2.11667 h 4.23333 4.23333 v -2.11667 -2.11666 h 2.11667 2.11667 v 4.23333 4.23333 h -6.35 -6.35 v 2.11667 2.11666 h -6.35 -6.35 z M 92.604168,115.8875 v -2.11666 h -2.116666 -2.116667 v -2.11667 -2.11667 h 6.35 6.349995 v 2.11667 2.11667 h 4.23334 4.23333 v 2.11666 2.11667 h -4.23333 -4.23334 v -2.11667 -2.11666 h -2.116662 -2.116666 v 2.11666 2.11667 h -2.116667 -2.116667 z m 29.633332,-8.46666 v -2.11667 h 4.23333 4.23334 v 2.11667 2.11666 h -4.23334 -4.23333 z m -25.399998,-6.35 v -4.233337 h 2.116666 2.116662 v 2.116667 2.11667 h 2.11667 2.11667 v -2.11667 -2.116667 h 4.23333 4.23333 v 4.233337 4.23333 h -8.46666 -8.466668 z m 29.633328,-2.11667 v -2.116667 h 2.11667 2.11667 v 2.116667 2.11667 h -2.11667 -2.11667 z m -63.499993,-12.7 V 75.670837 h 2.116666 2.116667 v 2.116667 2.116667 h 2.116666 2.116667 v 2.116666 2.116667 H 69.320836 67.20417 v 6.349999 6.35 h -2.116667 -2.116666 z m 8.466666,4.233333 v -2.116666 h 6.35 6.349999 v 2.116666 2.116667 h -6.349999 -6.35 z m 16.933332,0 v -2.116666 h 2.116667 2.116666 v 2.116666 2.116667 h -2.116666 -2.116667 z m 8.466667,0 v -2.116666 h 2.116666 2.116662 v 2.116666 2.116667 h -2.116662 -2.116666 z m 29.633328,0 v -2.116666 h -2.11666 -2.11667 V 86.25417 84.137504 h -2.11667 -2.11666 v 2.116666 2.116667 h -4.23334 -4.23333 V 86.25417 84.137504 h 4.23333 4.23334 v -2.116667 -2.116666 h 2.11666 2.11667 v 2.116666 2.116667 h 4.23333 4.23334 v 4.233333 4.233333 h -2.11667 -2.11667 z M 84.137502,77.787504 v -2.116667 h 2.116667 2.116666 v 2.116667 2.116667 h -2.116666 -2.116667 z m 21.166668,0 v -2.116667 h 2.11666 2.11667 v 2.116667 2.116667 h -2.11667 -2.11666 z"
         id="path11" /><path
         style="fill:#7c7c7c"
         d="m 101.07083,90.487503 v -2.116666 h 2.11667 2.11667 v 2.116666 2.116667 h -2.11667 -2.11667 z m 21.16667,-8.466666 v -2.116666 h 2.11667 2.11666 v -2.116667 -2.116667 h 2.11667 2.11667 v 2.116667 2.116667 h -2.11667 -2.11667 v 2.116666 2.116667 h -2.11666 -2.11667 z"
         id="path10" /><path
         style="fill:#737373"
         d="m 62.970837,141.2875 v -2.11667 h 6.349999 6.35 v -2.11666 -2.11667 h 8.466666 8.466666 v -2.11667 -2.11666 H 79.904169 67.20417 v -2.11667 -2.11667 h 6.349999 6.35 v -2.11666 -2.11667 h -2.116666 -2.116667 v -2.11666 -2.11667 H 71.437503 67.20417 v -2.11667 -2.11666 h 8.466666 8.466666 v -2.11667 -2.11667 h -4.233333 -4.233333 v -2.11666 -2.11667 h 4.233333 4.233333 v -4.23333 -4.233337 H 79.904169 75.670836 V 94.720836 92.60417 h 14.816666 14.816668 v -2.116667 -2.116666 h -2.11667 -2.11667 V 86.25417 84.137504 h -2.116662 -2.116666 v 2.116666 2.116667 h -6.35 -6.35 V 86.25417 84.137504 h 2.116667 2.116666 v -2.116667 -2.116666 h 6.35 6.349995 v 2.116666 2.116667 h 2.11667 2.11667 v 2.116666 2.116667 h 10.58333 10.58333 v 2.116666 2.116667 H 115.8875 105.30417 v 2.116666 2.116667 h -4.23334 -4.233328 v 2.116667 2.11667 h -4.233334 -4.233333 v 2.11666 2.11667 h 6.35 6.349995 v 2.11667 2.11666 h -6.349995 -6.35 v 2.11667 2.11667 h 2.116667 2.116666 v 2.11666 2.11667 h 2.116667 2.116667 v 2.11667 2.11666 h -2.116667 -2.116667 v -2.11666 -2.11667 h -4.233333 -4.233333 v 4.23333 4.23333 h 6.35 6.35 v 2.11667 2.11667 h 4.233328 4.23334 v -2.11667 -2.11667 h 10.58333 10.58333 v 2.11667 2.11667 h -6.35 -6.35 v 2.11666 2.11667 h -2.11666 -2.11667 v -2.11667 -2.11666 h -2.11667 -2.11666 v 2.11666 2.11667 h -4.23334 -4.233328 v 2.11667 2.11666 h -8.466667 -8.466666 v 2.11667 2.11667 h -8.466666 -8.466666 z m 46.566663,0 v -2.11667 h 4.23333 4.23334 v -2.11666 -2.11667 h 4.23333 4.23333 v 2.11667 2.11666 h -2.11666 -2.11667 v 2.11667 2.11667 h -6.35 -6.35 z m -8.46667,-21.16666 v -2.11667 h 2.11667 2.11667 v 2.11667 2.11666 h -2.11667 -2.11667 z m 8.46667,-4.23334 v -2.11666 h 6.35 6.35 v 2.11666 2.11667 h -6.35 -6.35 z m -4.23333,-8.46666 v -2.11667 h 8.46666 8.46667 v 2.11667 2.11666 h -8.46667 -8.46666 z M 62.970837,98.95417 v -2.116667 h 4.233333 4.233333 v 2.116667 2.11667 H 67.20417 62.970837 Z m 50.799993,0 v -2.116667 h 4.23334 4.23333 v 2.116667 2.11667 h -4.23333 -4.23334 z m -42.333327,-12.7 v -2.116666 h 4.233333 4.233333 v 2.116666 2.116667 h -4.233333 -4.233333 z m 55.033327,-4.233333 v -2.116666 h -8.46666 -8.46667 v -2.116667 -2.116667 h 8.46667 8.46666 v 2.116667 2.116667 h 2.11667 2.11667 v 2.116666 2.116667 h -2.11667 -2.11667 z M 67.20417,77.787504 v -2.116667 h 8.466666 8.466666 v 2.116667 2.116667 H 75.670836 67.20417 Z"
         id="path9" /><path
         style="fill:#676767"
         d="m 79.904169,141.2875 v -2.11667 h 2.116667 2.116666 v 2.11667 2.11667 h -2.116666 -2.116667 z m 25.400001,-8.46667 v -2.11666 h 2.11666 2.11667 v 2.11666 2.11667 h -2.11667 -2.11666 z m -42.333333,-8.46666 v -2.11667 h 2.116666 2.116667 v 2.11667 2.11666 h -2.116667 -2.116666 z m 63.499993,0 v -2.11667 h 2.11667 2.11667 v 2.11667 2.11666 h -2.11667 -2.11667 z m -29.633328,-6.35 v -4.23333 h 2.116666 2.116662 v 4.23333 4.23333 h -2.116662 -2.116666 z m -21.166666,-6.35 v -2.11667 h 2.116667 2.116666 v 2.11667 2.11667 h -2.116666 -2.116667 z m 25.399994,-4.23333 v -2.11667 h 2.11667 2.11667 v 2.11667 2.11666 h -2.11667 -2.11667 z m 25.4,-4.23334 v -2.11666 h -2.11666 -2.11667 v -2.11667 -2.116667 h 2.11667 2.11666 V 94.720836 92.60417 h 2.11667 2.11667 v 2.116666 2.116667 h -2.11667 -2.11667 v 2.116667 2.11667 h 2.11667 2.11667 v 2.11666 2.11667 h -2.11667 -2.11667 z m -25.4,-4.23333 v -2.116667 h 2.11667 2.11667 v 2.116667 2.11667 h -2.11667 -2.11667 z M 84.137502,90.487503 V 88.370837 H 82.020836 79.904169 V 86.25417 84.137504 h 2.116667 2.116666 v 2.116666 2.116667 h 2.116667 2.116666 v 2.116666 2.116667 H 86.254169 84.137502 Z M 67.20417,86.25417 v -2.116666 h 2.116666 2.116667 v 2.116666 2.116667 H 69.320836 67.20417 Z m 46.56666,-4.233333 v -2.116666 h 2.11667 2.11667 v 2.116666 2.116667 h -2.11667 -2.11667 z M 96.837502,77.787504 v -2.116667 h 2.116666 2.116662 v 2.116667 2.116667 h -2.116662 -2.116666 z"
         id="path8" /></g></g></svg>
